<svg xmlns="http://www.w3.org/2000/svg" xmlns:xlink="http://www.w3.org/1999/xlink" viewBox="0 0 187.1 126.8"><defs><path id="a" d="M0 0h187.1v126.8H0z"/></defs><clipPath id="b"><use xlink:href="#a" overflow="visible"/></clipPath><path d="M40 104.8c-.4-.1-.7-.1-1.1-.1h-2.3c-.4 0-.7.1-.9.1-2.9.5-4.8 1.6-6.5 3.7-1.7 1.9-2.6 4.4-2.6 7.1 0 2.8.8 5.3 2.6 7.2 1.7 2 3.6 3.2 6.5 3.7.3 0 .7.1 1.1.1h1c.9 0 1.6 0 2.2-.1 2.6-.4 4.1-1.3 5.7-2.8 1.6-1.4 2.6-3.3 3.1-5.7.2-.8.2-1.7.2-2.5 0-2.8-.8-5.2-2.6-7.1-1.7-2-3.7-3.2-6.4-3.6m2 11.2c0 .2 0 .3-.1.5-.2 1.2-.7 2.2-1.4 2.9-.8.7-1.5 1.1-2.7 1.1-1.2 0-2.1-.4-2.9-1.4-.8-.9-1.3-2.1-1.3-3.5s.4-2.6 1.2-3.5c.9-.9 1.7-1.4 3-1.4s2.1.5 2.9 1.4c.8.9 1.3 2 1.3 3.4v.5zm-18.4-9.1c-.2-1-1.1-1.8-2.1-1.8h-3.1c-.9 0-1.8.6-2.1 1.5l-3.1 9.7-3.1-9.7C9.8 105.8 9 105 8 105H5c-1.2 0-2 .9-2.1 1.9L.1 123.7c-.2 1.1.5 2.4 1.8 2.4h2.2c1.2 0 1.9-.6 2.2-1.9.3-1.3 1.2-9.3 1.2-9.3s2.6 8.9 2.9 9.7c.3.8 1 1.5 1.9 1.5H14c1 0 1.5-.5 1.9-1.5.4-1 2.9-9.7 2.9-9.7s.9 8.2 1.2 9.4c.3 1.2 1.1 1.8 2.1 1.8h2.3c1.2 0 2.1-1.1 1.8-2.5.1 0-2.6-16.7-2.6-16.7m62.3 8.3c1.4-.5 4-1.9 4-4.5 0-3.5-3.1-5.6-6.3-5.6h-7.9c-1.3 0-2.2 1-2.2 2.2V124c0 .9.7 2.2 2.2 2.2H81c1.9 0 5.6.1 7-.7 2.6-1.4 3.4-4.1 2.8-6.3-1-3.6-4.9-4-4.9-4m-6-5.8h1.7c.7 0 1.1.2 1.5.6.4.4.4.8.4 1.3 0 .9-.4 2-2.1 2h-1.5v-3.9zm4 11.5c-.4.5-1 .7-1.8.7h-2.3v-4.4h1.9c1.6 0 2.4.7 2.6 1.9.1.8 0 1.3-.4 1.8m26.2-2.8c-.1 2.8-.4 4.5-1.7 5.9-2.1 2.3-5.7 2.9-7.5 2.9-1.6 0-5.3-.6-7.4-2.9-1.3-1.4-1.6-3.1-1.7-5.9v-10.8c0-1.2 1-2.2 2.2-2.2h2.2c1.1 0 2.2.9 2.2 2.2v10.3c0 1.2 0 3.4 2.5 3.4s2.5-2.3 2.5-3.4v-10.3c0-1.3 1-2.2 2.2-2.2h2.3c1.1 0 2.1 1 2.1 2.2v10.8zm41.9-3.4c.4.4.5 1.2.5 1.4 0 5.9-4.7 10.8-11.3 10.8-6.6 0-11.3-4.6-11.3-11.2 0-6.5 4.7-11.2 11.3-11.2 5 0 7.7 1.8 9.1 3.4.5.6 1 1.2.9 1.9-.2.8-.6 1-1 1.1 0 0-2.3 1-3.1 1.2-1.1.3-1.3 0-2-.7-.9-.9-1.7-1.3-3.8-1.3-2.6 0-4.5 2.5-4.5 5.6 0 3.1 1.9 5.6 4.7 5.6 1.6 0 3.6-.9 3.8-3h-1.6c-1.9 0-2.2-.8-2.2-2.2 0-1.2.3-2.2 2.2-2.2h6.1c1.4 0 1.8.3 2.2.8m-26.9 2.3s3.6-.8 4-4.3c.2-1.6-.3-3.7-1.4-5.1-1.4-1.6-3.1-2.6-6.2-2.6h-7.3c-1.2 0-2.2 1-2.2 2.2V124c0 1.2 1 2.2 2.2 2.2h2.2c1.2 0 2.2-1 2.2-2.2v-6.5s4.5 6.9 5.1 7.8c.6.9 1.3.9 1.7.9h2.8c1.7 0 2.3-1.4 1.3-2.8-.9-1.4-4.4-6.4-4.4-6.4m-4.7-2.8h-1.8v-4.4h1.5c1.5 0 2.6.5 2.6 1.9 0 1.2-.5 2.5-2.3 2.5m62.5 2.8s3.8-.8 4.2-4.3c.2-1.6-.3-3.7-1.4-5.1-1.4-1.6-3.1-2.6-6.2-2.6h-7c-1.2 0-2.2 1-2.2 2.2V124c0 1.3 1 2.2 2.2 2.2h1.9c1.2 0 2.2-1 2.2-2.2v-6.5s3.4 6.6 3.9 7.5c.5.9 1.5 1.2 1.9 1.2h2.3c1.7 0 2.6-1.9 1.8-3.3-.9-1.4-3.6-5.9-3.6-5.9m-4.6-2.2h-1.8v-4.7h1.5c1.5 0 2.6.7 2.6 2.3 0 1.1-.5 2.4-2.3 2.4m-10 9.1c0 1.2-.9 2.2-2.2 2.2H156c-1.1 0-2.2-1-2.2-2.2v-16.7c0-1.2 1-2.2 2.2-2.2h10c1.2 0 2.2 1 2.2 2.2v.7c0 1.1-.9 2.2-2.2 2.2h-5.6v2.9h4.9c1.2 0 2.2.9 2.2 2v.8c0 1.2-1 2-2.2 2h-4.9v3h5.7c1.2 0 2.1 1 2.1 2.1v1zm-117.9.9c-.5-.2-.8-.5-1.1-1.2-.3-.6-.1-1.2.1-1.7.2-.4.4-.9.6-1.4.2-.5.7-1 1.5-1.2.7-.2 1.2 0 1.6.2.2.1.7.3 1.5.7 1.2.6 2.9 1 3.4 1.1 1.3.2 2.6-.5 2.6-1.6 0-1.6-2.8-1.7-5.8-2.9-2.6-1-5.2-3-5.2-5.8 0-3.6 2.6-7 8.4-7.1 3 0 5.1.8 6.3 1.3 1 .4 1.6 1.6 1.3 2.6 0 .1-.3.9-.4 1.4-.1.4-.5.9-1.2 1.2-.6.2-1.2.2-1.7-.1-.5-.2-1.2-.5-2.1-.8-1.2-.3-1.5-.4-2.3-.3-1 .2-1.6 1-1.3 1.7.3.8 1.8 1.3 3.7 1.9 2.5.6 4.8 1.5 5.7 2.6.9 1 1.3 2 1.3 3.9 0 2.8-1.6 7.4-9.5 7.5-3.2 0-6.3-1.5-7.4-2m60.7-59.2c6 11.6.7 24.8-9.5 29.5-11.2 5.1-24.2.8-29.5-9.5l-27.6-54C38.6 20 43.8 6.8 54 2.1c11.3-5.1 24.2-.7 29.5 9.5l27.6 54zm56.1 0c5.9 11.6.7 24.8-9.5 29.5-11.2 5.1-24.2.8-29.5-9.5l-27.6-53.9c-6-11.7-.8-24.9 9.4-29.6 11.2-5.1 24.2-.7 29.5 9.5l27.7 54zM60.5 76.4C53 61.9 38.9 34.5 38.9 34.5c-1.2-2.3-2-4.7-2.5-7.1L16.8 65.6c-5.9 11.6-.7 24.8 9.5 29.5 11.2 5.1 24.2.8 29.5-9.5l4.7-9.2z" clip-path="url(#b)" fill="#e60012"/></svg>