<svg version="1.1" id="レイヤー_1" xmlns="http://www.w3.org/2000/svg" xmlns:xlink="http://www.w3.org/1999/xlink" x="0" y="0" viewBox="0 0 1485.9 144.2" xml:space="preserve"><style>.st0{clip-path:url(#SVGID_2_);fill:#00573d}</style><defs><path id="SVGID_1_" d="M-203-465.9h1920v1080H-203z"/></defs><clipPath id="SVGID_2_"><use xlink:href="#SVGID_1_" overflow="visible"/></clipPath><path class="st0" d="M13.7.8c.2 0 .4-.7.6-.7.2 0 .5.3.8.3.2 0 .5-.4.7-.4.2 0 .5.2.7.2.2 0 .5.4.7.4.2 0 .5-.4.7-.4h.7c.2 0 .5.2.7.2.2 0 .5-.2.8-.2.2 0 .4.3.7.4.2 0 .6-.3.8-.2.2.1.3.8.5.9.3.1.6-.3.9-.2.2.1.5.1.7.2.2.1.3.5.5.6.2.1.6 0 .8.1.2.1.2.6.4.7.2.1.7-.3.9-.2.2.1.1.7.3.8.2.1.3.4.5.5.2.1.8-.3 1-.1.2.1.4.3.6.4.2.1-.1.9.1 1 .2.2.8-.2 1-.1.2.2-.1.8.1 1 .2.2.5.1.7.3.2.2.5.2.6.4.2.2.2.5.4.6.2.2.5.2.7.3.2.2.3.4.5.6.2.3 0 .8.1 1 .2.2.5.2.7.4.2.2.2.4.4.6.2.2.6.1.7.3.2.2-.1.7.1.9.2.2.6.1.7.3.1.2 0 .6.2.8.1.2.2.4.4.6.1.2.4.3.5.5 0 0 .7-.2.9.1.1.2-.1.6 0 .8.1.2.2.4.4.5.2.3.7.3.7.3.2.2-.1.7 0 .9.1.2.5.2.6.4.2.2.4.3.5.5.2.2.2.4.4.6.1.2.5.2.6.4.1.2.3.4.5.6.1.2.1.6.2.7.1.2.6.1.8.3s-.1.7 0 .9c.1.2.4.3.5.5s.4.3.5.5c.1.2 0 .6.2.8.1.2.2.5.3.6.1.2.6.2.7.4.1.2 0 .6.1.8.1.2.8 0 .9.2.1.2-.3.8-.1 1 .1.2.3.3.5.5.1.2.8 0 1 .2.1.2.1.5.3.7s.4.3.5.5c.1.2.2.4.4.6.1.2.3.3.5.5.1.2.3.4.4.6.1.2.1.5.3.7.1.2.2.4.4.6.1.2.5.3.6.5.1.2 0 .6.2.8s0 .6.1.8c.1.2.3.4.4.6.1.2.6.2.7.4.1.2-.1.7 0 .8.1.2.3.4.4.6.1.2.5.3.6.4.1.2.1.5.2.7s.8 0 .9.2c.1.2.2.5.3.7.1.2.1.5.2.7.1.2 0 .6.2.8.1.2.8 0 .9.2.1.2 0 .6.2.7.1.2.2.5.3.7.1.2.1.5.3.7.1.2.3.4.5.6.1.2.4.3.5.5.1.2.1.5.3.7l.3.6c.1.2.4.3.5.5.1.2.4.3.5.5.1.2.7.1.9.2.1.2-.3.8-.1 1 .1.2.5.2.6.4.1.2.2.5.3.7.1.2.2.4.4.6.1.2.8 0 .9.2.1.2-.1.6.1.8.1.2.5.2.6.4l.3.6c.1.2.2.4.4.6.1.2.5.2.6.4.1.2-.2.8-.1 1 .1.2.8 0 1 .1.1.2 0 .6.1.8.1.2.5.2.6.4.2.2.3.4.5.5.2.1.3.4.4.6.2.1.4.3.6.4.2.1.5.1.7.2.2.1.3.5.5.6.2.1.6-.3.8-.2.2 0 .5-.1.7-.1.2 0 .4.2.7.2.2 0 .5-.1.7-.1.2 0 .6.3.8.2.2-.1.2-.7.4-.8.2-.1.6.1.8-.1l-.1.1c.2-.1.4-.4.6-.5.2-.1.4-.3.6-.5.2-.2.5-.2.7-.4.2-.2.2-.5.4-.7.2-.2.1-.6.2-.8.2-.2.6-.1.8-.3.2-.2 0-.7.1-.9.2-.2.3-.4.5-.6.2-.2.4-.3.6-.5.1-.2.7-.1.8-.3.1-.2.2-.4.3-.7.1-.2-.1-.6.1-.8.1-.2.1-.5.2-.7.1-.2.2-.4.4-.6.1-.2.3-.4.4-.6.1-.2.4-.3.5-.5.1-.2.1-.5.2-.7.1-.2.7-.2.8-.4.1-.2.1-.5.2-.7.1-.2.1-.5.2-.7.1-.2.2-.4.3-.7.1-.2.4-.3.6-.5.1-.2.1-.5.2-.7.1-.2.3-.4.4-.6.1-.2.4-.3.5-.5.1-.2.4-.3.5-.5.1-.2.5-.2.6-.5.1-.2-.4-.8-.3-1 .1-.2.8-.1 1-.3.1-.2-.1-.7 0-.9.1-.2.3-.4.5-.6.1-.2.2-.5.3-.7.1-.2.1-.5.3-.7s.5-.3.6-.5c.1-.2.5-.2.6-.5.1-.2-.2-.7 0-.9.1-.2.4-.3.5-.5.1-.2.1-.5.2-.7.1-.2.6-.2.8-.4.1-.2.3-.4.4-.6.1-.2 0-.6.1-.8.1-.2.4-.3.5-.5.1-.2.5-.2.7-.4s0-.6.1-.8c.1-.2 0-.5.2-.8.1-.2.4-.3.6-.5.1-.2.4-.3.5-.5.1-.2.1-.5.2-.7.1-.2.4-.3.6-.5.1-.2.2-.5.3-.7.1-.2.4-.3.5-.5.1-.2.1-.5.2-.7.1-.2.2-.4.4-.6.1-.2.3-.4.5-.6.1-.2.4-.3.6-.5.1-.2 0-.6.1-.8.1-.2.1-.5.2-.7.1-.2.4-.3.5-.5.1-.2.4-.3.5-.5.1-.2.6-.2.7-.4.1-.2.1-.5.2-.7.1-.2.3-.4.5-.6.1-.2.3-.4.5-.6.1-.2-.1-.6.1-.8.1-.2.6-.2.7-.4.1-.2.1-.5.2-.7.1-.2.2-.4.4-.6.1-.2-.1-.7 0-.9.1-.2.4-.3.5-.5.1-.2.6-.2.7-.4.1-.2 0-.6.1-.8.1-.2.2-.5.3-.6.1-.2.7-.1.9-.3.1-.2.3-.4.5-.5.1-.2.1-.5.3-.7.1-.2.1-.6.2-.8.1-.2.6-.2.7-.4.1-.2.3-.4.4-.6.2-.2.4-.3.6-.5 0 0 0-.3.3-.6.1-.2 0-.6.2-.8.3-.3.6-.4.6-.4.2-.2.3-.4.4-.6.2-.2.3-.4.5-.5.2-.1.5-.2.7-.3.2-.1.3-.4.5-.5.2-.1.5-.1.7-.2l.6-.3c.2-.1.5-.2.7-.3.2-.1.4-.5.6-.5.2-.1.7.5.9.4.2-.1.3-.8.5-.9.2-.1.6.3.8.3.2 0 .5-.2.7-.2.2 0 .5-.1.7-.1.2 0 .5.2.7.2.2 0 .5-.3.7-.3.2 0 .5.6.7.6.2 0 .5-.5.8-.4h.7c.2 0 .5.2.7.2.2.1.4.4.6.5.2.1.5.1.7.2.2.1.6-.2.9-.1.2.1.5.2.7.3.2.1.1.8.3.9.2.1.6 0 .8.1.2.1.6.1.8.2.2.1.4.3.6.4.2.2.2.5.4.6.2.2.2.4.4.6.1.2.6.2.7.4.1.2 0 .6.1.8.1.2.3.4.4.6.1.2-.1.6 0 .8.1.2.8.2.9.4.1.2.1.5.2.7.1.2.3.4.3.7.1.2-.1.5-.1.8.1.2.1.5.2.7.1.2-.4.6-.3.8 0 .2.5.4.5.6 0 .2 0 .5.1.7v.7c0 .2 0 .5.1.7 0 .2.6.4.6.7 0 .2-.7.5-.7.8 0 .2.4.4.5.7 0 .2.3.5.3.7 0 .2.1.5.1.7 0 .2-.4.5-.4.7 0 .2.1.5.1.7 0 .2-.2.5-.2.7 0 .2.5.5.5.7 0 .2-.3.5-.3.7 0 .2.3.5.3.7v.7c0 .2.1.5.1.7v.7c0 .2-.7.5-.7.7v.7c0 .2.6.5.6.7 0 .2-.5.5-.5.7 0 .2.3.5.3.7 0 .2.1.5.1.7 0 .2-.2.5-.2.7 0 .2-.2.5-.2.7 0 .2.1.5.1.7 0 .2.2.5.2.7 0 .2.2.5.2.7 0 .2.2.5.2.7 0 .2-.6.5-.5.7 0 .2.4.5.4.7 0 .2.1.5.1.7 0 .2-.3.5-.3.7 0 .2-.3.5-.3.7 0 .2.2.5.2.7 0 .2.4.5.4.7 0 .2.1.5.1.7s-.7.5-.7.7c0 .2.3.5.3.7 0 .2-.3.5-.3.7v.7c0 .2.4.5.4.7 0 .2.4.5.4.7 0 .2-.7.5-.7.7 0 .2.3.5.3.7 0 .2.3.5.3.7 0 .2-.5.5-.5.7 0 .2.2.5.2.7 0 .2.4.5.4.7 0 .2-.2.5-.2.7 0 .2.1.5.1.7 0 .2-.4.5-.4.7 0 .2.2.5.2.7 0 .2.3.5.3.7v.7c0 .2-.4.5-.4.7 0 .2-.1.5-.1.7v.7c0 .2.1.5.1.7 0 .2-.2.5-.2.7 0 .2.4.5.4.7 0 .2-.2.5-.2.7 0 .2.2.5.2.7 0 .2.2.5.2.7 0 .2.1.5.1.7 0 .2-.4.5-.4.7 0 .2.2.5.2.7 0 .2-.3.5-.3.7 0 .2-.3.5-.3.7v.7c0 .2.6.5.6.7 0 .2.1.5.1.7 0 .2.1.5.1.7 0 .2-.1.5-.1.7 0 .2-.4.5-.4.7 0 .2.2.5.2.7 0 .2.3.5.3.7 0 .2-.5.5-.5.7 0 .2.4.5.4.7s-.3.5-.3.7c0 .2.2.5.2.7 0 .2-.2.5-.2.7 0 .2.4.5.4.7 0 .2-.4.5-.4.7 0 .2-.3.5-.3.7 0 .2.5.5.5.7 0 .2-.2.5-.2.7 0 .2-.3.5-.3.7 0 .2.3.5.3.7 0 .2-.2.5-.2.7 0 .2.2.5.2.7v.7c0 .2.2.5.2.7 0 .2.1.5.1.7 0 .2-.4.5-.4.7 0 .2.2.5.2.7v.7c0 .2.2.5.2.7 0 .2.1.5.1.7 0 .2-.6.5-.6.7 0 .2.5.5.5.7 0 .2-.5.5-.5.7v.7c0 .2.3.5.3.7 0 .2-.2.5-.2.7 0 .2-.2.5-.2.7 0 .2.6.5.6.7 0 .2-.5.5-.5.7 0 .2.6.5.7.7 0 .2-.6.5-.6.7 0 .2.2.5.2.7 0 .2.4.5.4.7 0 .2-.4.5-.4.7 0 .2.4.5.4.7 0 .2-.3.5-.3.7 0 .2.1.5.1.7 0 .2.2.5.2.7 0 .2-.4.5-.4.8 0 .2.2.5.2.7 0 .2.6.4.6.6 0 .2-.7.6-.6.8 0 .2.2.5.3.7.1.2.6.3.7.5.1.2.1.4.2.7.1.2.3.4.4.6l.3.6c.1.2.2.4.4.6l.3.6c.1.2.1.5.2.7.1.2.5.2.7.4.2.2.1.6.2.7.2.2.3.4.4.6.3.4.5.5.5.5.2.2.4.3.6.4.2.2 0 .6.1.8.1.2.4.3.5.5.1.2 0 .5.2.7.1.2.7.1.8.3.1.2-.2.7-.1.9l.3.6c.1.2.3.4.3.6.1.2.3.4.4.6 0 .2-.2.5-.2.7 0 .2-.2.4-.2.6 0 .2.3.5.3.8-.1.2-.5.2-.7.4-.1.2-.1.5-.2.7-.1.2 0 .7-.2.9-.2.1-.5.1-.7.3-.2.1-.5.1-.7.2-.1.1-.5-.1-.8 0-.2.1-.3.7-.5.8-.4.1-.8.2-.7.2 0 0-.3-.2-.8-.2-.2 0-.4-.2-.7-.2-.2 0-.5.4-.7.4-.2 0-.5-.3-.7-.3-.2 0-.5-.2-.7-.2-.2 0-.5.2-.7.2-.2 0-.5-.3-.7-.3-.2 0-.5.4-.7.4-.2 0-.5.1-.7.1-.2 0-.5-.2-.7-.2-.2 0-.5-.4-.7-.4h-.7c-.2 0-.5.3-.7.3-.2 0-.5.3-.7.3-.2 0-.5-.7-.7-.7-.2 0-.5.5-.7.5-.2 0-.5-.1-.7-.1h-.7c-.2 0-.5-.2-.7-.2-.2 0-.5.4-.7.4h-.7c-.2 0-.5-.6-.7-.6-.2 0-.5.4-.7.4s-.5.1-.7.1h-.7c-.2 0-.5-.3-.7-.3-.2 0-.5.1-.7.1-.2 0-.5-.3-.7-.3-.2 0-.5.3-.7.3-.2 0-.5-.2-.7-.2-.2 0-.5-.1-.7-.1-.2 0-.5.6-.7.6-.2 0-.5-.2-.7-.2-.2 0-.5.2-.7.2-.2 0-.5-.3-.7-.3-.2 0-.5.3-.7.3-.2 0-.5-.1-.7-.1-.2 0-.5-.1-.7-.1-.2 0-.5-.3-.7-.3-.2 0-.5.6-.7.6-.2 0-.5-.2-.7-.2-.3 0-.5-.1-.7-.1-.3 0-.5-.5-.7-.5-.3 0-.5.1-.7.1-.3 0-.5-.1-.7-.1-.5 0-.7.6-.7.6-.3 0-.5-.1-.7-.1-.2 0-.5 0-.7-.1-.2-.1-.4-.5-.6-.6-.2-.1-.7.3-.9.2-.2-.1-.3-.5-.5-.6-.2-.1-.4-.3-.6-.5-.2-.2-.1-.6-.2-.8-.1-.2-.3-.3-.4-.6-.1-.2-.4-.4-.4-.6-.1-.2.3-.5.3-.8 0-.2-.3-.4-.3-.7 0-.2-.3-.5-.2-.8 0-.2.5-.4.5-.6.1-.2-.3-.6-.2-.8.1-.2 0-.5.1-.8.1-.2.6-.3.7-.5.1-.2.2-.5.3-.7.1-.2.2-.5.3-.7.1-.2.7-.1.8-.3.2-.2 0-.6.2-.8.2-.2.4-.3.5-.5.2-.2.2-.5.4-.7.2-.2.6-.1.8-.3.2-.2.4-.3.6-.5.2-.2.2-.6.4-.8.3-.4.3-.8.3-.8.2-.2.7 0 .8-.2.1-.2-.2-.7-.1-.9.1-.2.9-.1.9-.3.1-.2-.5-.7-.4-.9.1-.2.6-.3.7-.5.1-.2-.2-.5-.2-.8 0-.2.2-.4.2-.7 0-.2.4-.4.4-.7 0-.2-.5-.5-.5-.7 0-.2.2-.5.2-.7 0-.2-.1-.5-.1-.7 0-.3.3-.5.3-.7 0-.4-.3-.7-.3-.7 0-.2.5-.5.5-.7 0-.2-.6-.5-.6-.7v-.7c0-.2-.2-.5-.2-.7 0-.2.6-.5.6-.7 0-.2.2-.5.2-.7 0-.2-.4-.5-.4-.7 0-.2.2-.5.2-.7 0-.2-.1-.5-.1-.7 0-.2-.2-.5-.2-.7v-.7c0-.2.6-.5.6-.7 0-.2-.6-.5-.6-.7 0-.2.8-.5.8-.7 0-.2-.7-.5-.7-.7 0-.2.1-.5.1-.7 0-.2.1-.5.1-.7 0-.2.5-.5.5-.7 0-.2-.2-.5-.2-.7 0-.2.1-.5.1-.7 0-.2-.3-.5-.3-.7 0-.2.1-.5.1-.7v-.7c0-.2.5-.5.5-.7 0-.2-.2-.5-.2-.7 0-.2-.2-.5-.2-.7 0-.2-.3-.5-.3-.7 0-.2.6-.5.6-.7s-.7-.5-.7-.7c0-.2.1-.5.1-.7 0-.2.5-.5.5-.7 0-.2-.2-.5-.2-.7 0-.2.3-.5.3-.7 0-.2-.3-.5-.3-.7 0-.2.2-.5.2-.7 0-.2-.6-.5-.6-.7 0-.2.1-.5.1-.7 0-.2.4-.5.4-.7 0-.2-.1-.5-.1-.7 0-.2-.5-.5-.5-.7 0-.3.3-.5.3-.8 0-.3-.2-.5-.3-.7-.1-.3-.2-.4-.4-.6-.1-.2.1-.8-.1-.9-.2-.1-.5-.1-.8-.2-.2-.1-.5.3-.8.3-.3 0-.5-.1-.7 0-.3 0-.5 0-.7.1-.3.2-.5.2-.7.3-.2.2-.2.5-.4.6-.2.2-.7.1-.8.3-.2.2-.2.4-.4.6s0 .6-.2.8c-.1.2-.4.3-.5.5-.1.2-.5.2-.7.4-.1.2-.1.5-.2.7-.1.2-.3.4-.4.6s-.1.5-.3.7c-.1.2-.6.2-.7.4l-.3.6c-.6 3.4-.6 3.7-.8 3.9-.1.2-.3.3-.5.5-.1.2-.5.3-.6.5-.1.2-.2.5-.3.7-.1.2-.2.4-.4.6-.1.2-.6.2-.7.4-.1.2.3.8.1 1-.1.2-.5.2-.7.4-.1.2-.5.2-.6.4-.1.2 0 .6-.1.8-.1.2-.3.4-.4.6-.1.2-.3.4-.4.6-.1.2-.4.3-.5.5-.1.2-.1.5-.3.7-.1.2-.6.2-.7.3-.1.2-.2.5-.3.7-.1.2-.3.4-.4.6-.1.2-.7.1-.8.3-.2.2 0 .6-.1.8-.2.2-.1.5-.3.7-.2.2-.6.1-.7.3-.2.2-.2.5-.3.7-.2.2-.5.2-.7.3-.2.2-.4.3-.6.4-.2.2.1.8 0 1-.2.2-.3.4-.4.6-.2.2-.7 0-.9.1-.2.2 0 .7-.2.8-.2.2-.8-.2-1 0-.2.2.1.8-.1 1-.2.2-.8-.1-1 0-.2.2-.4.3-.6.4-.2.2-.2.4-.4.6-.2.2-.4.3-.5.5-.2.2-.1.6-.3.8-.2.1-.4.3-.6.4-.2.1-.4.2-.6.4.1 0-.8.3-.7.3l-.6.3c-.2.1-.2.6-.4.7-.2.1-.5.1-.7.2l-.6.3c-.2.1-.6-.3-.8-.2-.2.1-.4.4-.6.4-.2.1-.5-.3-.8-.3-.2 0-.4.1-.7.1-.2 0-.4.7-.7.7s-.5-.3-.7-.3c-.2 0-.5 0-.7-.1-.2 0-.5.1-.7.1-.2 0-.5.1-.7.1-.2 0-.5-.2-.7-.2-.2 0-.5-.1-.7-.2-.2-.1-.5.1-.8.1-.2-.1-.2-.8-.4-.8-.2-.1-.6.3-.8.2-.2-.1-.3-.5-.5-.6-.2-.1-.7.2-.9.1-.2-.1-.4-.3-.6-.4-.2-.1 0-.7-.2-.9-.2-.1-.5-.1-.7-.3l-.5-.5c-.2-.2-.6 0-.8-.2-.2-.2.1-.8-.1-1-.2-.2-.8.1-.9 0-.2-.2-.3-.4-.4-.6-.2-.2-.3-.4-.4-.6-.2-.2-.5-.2-.6-.4-.2-.2-.4-.3-.5-.5-.2-.2-.1-.5-.2-.7-.2-.2-.4-.3-.5-.5-.1-.2-.3-.4-.5-.5l-.3-.6c-.1-.2-.1-.5-.2-.7-.1-.2-.3-.4-.4-.5-.1-.2-.7 0-.9-.2-.1-.2.2-.7.1-.9-.1-.2-.2-.4-.4-.6-.1-.2-.7-.1-.8-.3-.1-.2-.2-.5-.3-.6-.1-.2-.2-.4-.4-.6-.1-.2-.1-.5-.2-.7-.1-.2-.2-.4-.4-.6-.1-.2-.5-.3-.6-.5l-.3-.6c0 .1-.1-.2-.4-.6-.1-.2-.1-.4-.3-.7-.1-.2-.1-.5-.3-.7-.1-.2-.7-.1-.9-.3-.1-.2.4-.8.2-1-.1-.2-.8-.1-.9-.3-.1-.2.1-.6-.1-.8-.1-.2-.5-.3-.6-.5-.1-.2.2-.7.1-.9-.1-.2-.8-.1-.9-.3-.1-.2.2-.7.1-.9-.1-.2-.3-.4-.4-.6-.1-.2-.2-.5-.3-.7-.1-.2-.6-.2-.8-.4-.1-.2 0-.6-.1-.8-.1-.2-.7-.2-.8-.3-.2-.4.1-.8.1-.8v-.1c-.1-.2-.5-.2-.6-.4-.1-.2.1-.6 0-.8-.1-.2-.6-.1-.7-.3-.2-.2-.1-.5-.3-.7-.2-.2-.4-.2-.6-.3-.2-.1-.4-.5-.6-.5-.3-.1-.6 0-.8 0-.3 0-.5.3-.7.4-.2.1-.2.5-.4.6-.2.1-.6 0-.8.2-.1.2-.2.4-.2.7-.1.2-.1.4-.1.7 0 .2-.1.5-.1.7 0 .2-.2.5-.2.7 0 .2.6.5.6.7 0 .2-.2.5-.2.7v.7l-.1-.1c0 .1.2.3.3.7 0 .2-.6.5-.6.7 0 .2.3.5.3.7v.7c0 .2-.2.5-.2.7 0 .2.1.5.1.7 0 .2-.2.5-.2.7 0 .2.6.5.6.7 0 .2-.4.5-.4.7 0 .2.4.5.4.7 0 .2-.4.5-.4.7 0 .2.2.5.2.7 0 .2.3.5.3.7 0 .2-.3.5-.3.7v.7c0 .2-.1.5-.1.7 0 .2.5.5.5.7 0 .2-.3.5-.3.7 0 .2-.4.5-.4.7 0 .2-.1.5-.1.7 0 .2.5.5.5.7 0 .2-.3.5-.3.7 0 .2.6.5.6.7 0 .2-.6.5-.6.7 0 .2.1.5.1.7 0 .2.1.5.1.7 0 .2.2.5.2.7 0 .2.2.5.2.7 0 .2-.2.5-.2.7 0 .2.1.5.1.7 0 .2.1.5 0 .7 0 .2-.3.5-.3.7 0 .2-.3.5-.3.7 0 .2.5.5.5.7 0 .2-.5.5-.5.7 0 .2-.2.5-.2.7 0 .2.5.5.5.7 0 .2-.2.5-.2.7 0 .2-.4.5-.4.7 0 .2.6.5.6.7v.7c0 .2-.1.5-.1.7v.7c0 .2-.4.5-.4.7 0 .2-.2.5-.2.7 0 .2-.1.5-.1.7 0 .2.7.6.7.8h-.3v.7c0 .2-.3.4-.3.7 0 .2-.5.4-.5.6 0 .2.2.5.2.7 0 .2.3.5.2.8 0 .2-.6.4-.7.6 0 .2.4.6.3.8 0 .2-.5.4-.5.6-.1.2.2.5.1.8-.1.2 0 .5-.1.7-.1.2-.6.3-.7.5-.1.2.1.5 0 .8-.1.2.1.6 0 .8-.1.2-.1.5-.3.7-.1.2-.7.2-.8.4-.1.2-.4.3-.5.5-.1.2.2.7.1.9-.1.2-.8 0-1 .1-.2.2 0 .6-.1.8-.2.2-.3.4-.4.6-.2.2-.7-.1-.8.1-.2.1-.2.6-.4.7-.2.1-.5.1-.8.2-.2.1-.4.5-.6.6-.3.1-.6-.2-.8-.2-.1 0-.3.5-.7.6-.2 0-.4-.4-.7-.4-.2 0-.5.1-.7.1-.2 0-.5.3-.7.3h-.7c-.2 0-.5-.6-.7-.6-.2 0-.5-.1-.7-.1-.2 0-.5.7-.7.7-.2 0-.5-.1-.7-.1-.2 0-.5-.2-.7-.2-.2 0-.5.2-.7.2-.2 0-.5-.4-.7-.4-.2 0-.5-.1-.7-.1-.2 0-.5.1-.7.1-.2 0-.5-.1-.7-.1-.2 0-.5.5-.7.5-.2 0-.5-.3-.7-.3s-.5.4-.7.4c-.2 0-.5-.3-.7-.3-.2 0-.5-.4-.7-.4-.2 0-.5.5-.7.5-.2 0-.5-.2-.7-.2-.2 0-.5.3-.7.3-.2 0-.5-.2-.7-.2-.2 0-.5-.3-.7-.3-.2 0-.5.2-.7.2-.2 0-.5.4-.7.4-.2 0-.5-.5-.7-.5-.3 0-.5.1-.7.1-.3 0-.5.3-.7.3-.3 0-.5-.4-.7-.4-.3 0-.5.1-.7.1-.3 0-.6-.2-.7-.2-.3 0-.5-.1-.7-.2-.3-.1-.6.2-.8.1-.2-.1-.4-.4-.6-.5-.2-.1-.4-.3-.6-.4-.2-.1-.3-.3-.5-.5s-.8 0-.9-.2c-.1-.2.2-.6.1-.9-.1-.2-.7-.3-.7-.5v-.8c0-.2-.2-.5-.2-.8 0-.2.5-.4.6-.7 0-.2 0-.5.1-.7.1-.2-.1-.5 0-.8.1-.2.1-.5.2-.7.1-.2.8-.2.9-.4.1-.2 0-.5.1-.7.1-.2-.1-.6 0-.8.1-.2.3-.4.4-.6.1-.2.1-.5.2-.7.1-.2.6-.2.8-.4.1-.2.3-.4.4-.6.1-.2.4-.3.5-.5.3-.4 0-.8 0-.8l.1.8c.1-.2.3-.4.4-.6.1-.2-.3-.7-.2-1 .1-.2.5-.3.6-.5.1-.2 0-.5.1-.8.1-.2.8-.2.9-.4.1-.2.1-.5.2-.7.1-.2-.3-.7-.2-.9.1-.2.3-.4.4-.6.1-.2 0-.5.1-.8.1-.2.6-.3.7-.5.1-.2.2-.4.3-.7h.1l-.4-.2.1.1.4.1h.2c.1-.2-.1-.5 0-.8.1-.2-.4-.6-.3-.8.1-.2.3-.4.4-.6.1-.2.1-.5.2-.7.1-.2.4-.4.5-.6.1-.2-.3-.6-.2-.8.1-.2.5-.4.6-.6s-1.1.7-1.1.5c.1-.2.7-.3.7-.6.1-.2-.2-.5-.2-.8.1-.2-.1-.5-.1-.8.1-.2.5-.4.6-.6.1-.2.2-.5.2-.7 0-.2-.1-.5-.1-.8 0-.2.1-.5.1-.7 0-.2-.1-.5 0-.7 0-.2.1-.5.2-.7 0-.2-.2-.5-.1-.8 0-.2.6-.4.7-.6 0-.2.3-.4.3-.7 0-.2-.6-.6-.5-.8 0-.2.2-.5.2-.7 0-.2.2-.5.3-.7 0-.2.5-.4.5-.7 0-.2-.1-.5-.1-.7 0-.2.2-.5.3-.7 0-.2-.5-.5-.4-.8 0-.2.4-.4.5-.7 0-.2.1-.5.2-.7 0-.2-.4-.5-.4-.8 0-.2.4-.5.4-.7 0-.2-.4-.5-.3-.8v-.7c0-.2.2-.5.2-.7 0-.2-.1-.5-.1-.7v-.7c0-.2.1-.5.1-.7 0-.2.2-.5.2-.7 0-.2.3-.5.3-.7 0-.2-.2-.5-.2-.7 0-.2.4-.5.4-.7 0-.2-.6-.5-.6-.7 0-.2.5-.5.5-.7v-.7c0-.2-.1-.5-.1-.7 0-.2.2-.5.2-.7 0-.2-.3-.5-.3-.7 0-.2.2-.5.2-.7 0-.2-.5-.5-.5-.7 0-.2.1-.5.1-.7 0-.2-.2-.5-.2-.7 0-.2.2-.5.2-.7 0-.2.1-.5.1-.7 0-.2-.3-.5-.3-.7 0-.2.6-.5.6-.7 0-.2-.1-.5-.1-.7 0-.2-.4-.5-.4-.7 0-.2-.1-.5-.1-.7 0-.2.2-.5.2-.7 0-.2.1-.5.1-.7 0-.2-.4-.5-.4-.7 0-.2-.1-.5-.1-.7 0-.2-.1-.5-.1-.7 0-.2.5-.5.5-.8 0-.2-.4-.5-.4-.7 0-.2.3-.5.3-.7 0-.2.1-.5.1-.7 0-.2-.2-.5-.2-.7 0-.2.3-.5.3-.7 0-.2-.1-.5-.1-.7 0-.2.1-.5.1-.7v-1.4c0-.2-.7-.4-.7-.7 0-.2-.1-.5-.1-.7 0-.2.2-.5.1-.7v-.7c0-.2-.1-.5-.1-.7 0-.2.3-.5.3-.7 0-.2-.8-.4-.8-.6 0-.2.2-.5.1-.7 0-.2.5-.5.5-.8 0-.2-.2-.5-.3-.7 0-.2-.6-.4-.6-.7 0-.2.1-.5.1-.7 0-.2-.1-.5-.1-.7 0-.2.3-.5.3-.8 0-.2-.3-.4-.3-.7 0-.2.2-.5.2-.8 0-.2-.4-.4-.5-.7 0-.2-.3-.4-.3-.7 0-.2.5-.6.4-.8 0-.2-.6-.4-.7-.6 0-.2.5-.6.4-.8 0-.2-.2-.4-.3-.7 0-.2-.3-.4-.4-.7-.1-.2.3-.6.3-.8-.1-.2-.4-.4-.5-.6-.1-.2-.2-.5-.2-.7-.1-.2.2-.5.1-.8-.4-.5-.5-.7-.5-1-.1-.2-.7-.3-.8-.5-.1-.2-.1-.5-.2-.7-.1-.2 0-.5-.1-.7-.1-.2-.1-.5-.2-.7-.1-.2-.1-.5-.2-.7-.1-.2.1-.5 0-.8-.1-.2-.1-.5-.2-.7 0-.2-.7-.2-.8-.4l-.3-.6c-.1-.2.3-.7.2-.9-.1-.2-.5-.3-.6-.5-.1-.2.1-.6 0-.8-.1-.2-.4-.3-.5-.5-.2-.3-.2-.5-.3-.7-.1-.2-.6-.3-.7-.5-.1-.3-.1-.5-.2-.8-.1-.2-.4-.4-.5-.6-.1-.2-.3-.4-.3-.7-.2-.1-.2-.4-.3-.6-.1-.2-.1-.5-.2-.7 0-.3.3-.6.2-.9 0-.2-.2-.5-.2-.7 0-.3.2-.5.2-.7 0-.3-.6-.5-.6-.7 0-.3.5-.5.5-.7 0-.2.1-.5.2-.7.1-.2-.3-.6-.2-.8.1-.2.2-.5.3-.7.1-.2.4-.4.5-.6.2-.3.4-.4.5-.7.1-.2.2-.4.4-.6.1-.2-.1-.6.1-.8.1-.2.6-.1.8-.3.1-.1.4-.1.6-.3.2-.2.1-.6.3-.7.2-.1.5-.1.7-.2l.6-.3c.3-.1.2-.8.4-.9.2-.1.5 0 .8-.1.2 0 .5 0 .7-.1.2-.1.4-.3.6-.4.2-.1.4-.2.7-.3.2-.1.4-.2.7-.3.2-.1.5.2.8.2.2 0 .4-.4.7-.5.1.1.5.8.7.7"/><path d="M419.5 1h-7.2c-1.1 0-2.2.5-2.8 1.4l-42.8 54.9-42.7-55c-.7-.9-1.7-1.4-2.8-1.4H314c-2 0-3.6 1.6-3.6 3.6v109.8c0 2 1.6 3.6 3.6 3.6h22c2 0 3.6-1.6 3.6-3.6V67.1l20.7 26.1c.7.9 1.7 1.4 2.8 1.4h7.2c1.1 0 2.1-.5 2.8-1.4l20.7-26.1v47.3c0 2 1.6 3.6 3.6 3.6h22.1c2 0 3.6-1.6 3.6-3.6V4.6c0-2-1.6-3.6-3.6-3.6m78.8 0c-16.8 0-31.3 5.8-43 17.1-11.8 11.4-17.8 25.7-17.8 42.4s6 31 17.8 42.4c11.8 11.4 26.2 17.1 43 17.1s31.3-5.8 43.2-17.1c11.9-11.4 18-25.7 18-42.4 0-16.8-6-31-18-42.4C529.6 6.7 515.1 1 498.3 1m31.2 59.5c0 9.4-2.9 17-8.8 23s-13.2 8.9-22.2 8.9c-9.2 0-16.5-2.9-22.4-8.8-5.9-5.9-8.7-13.5-8.7-23s2.9-17 8.8-23 13.2-8.9 22.3-8.9c9 0 16.3 2.9 22.2 8.9 5.9 5.9 8.8 13.4 8.8 22.9m94.6-11.3l-12.2-5.4c-5.3-2.4-7.7-4.1-8.8-5.1-.7-.6-1.6-1.7-1.6-4.1 0-2.2.7-3.7 2.3-4.8 2-1.4 4.4-2 7.5-2 7 0 12.7 3.5 17.6 10.8.6.8 1.4 1.4 2.4 1.6 1 .2 2-.1 2.8-.7l15-11.6c1.4-1.1 1.8-3 1-4.6-3.7-6.7-8.9-12.2-15.4-16.2C628 3 620.1 1 611.2 1c-11.2 0-20.6 3.1-28 9.2-7.6 6.3-11.4 14.7-11.4 24.9 0 8 2.6 14.9 7.7 20.4 4.8 5.2 11.7 9.9 20.5 13.9l11.6 5.2c3.4 1.6 5.9 2.8 7.4 3.7 1.1.6 2.2 1.6 3.1 2.8.8 1.1 1.2 2.3 1.2 3.7 0 2.6-.9 4.5-2.7 5.9-2.1 1.6-5.1 2.4-9.1 2.4-9 0-16.7-4.6-23.5-14.2-.6-.8-1.4-1.3-2.4-1.5-1-.1-1.9.1-2.7.7l-15.2 11.4c-1.4 1.1-1.9 3.1-1 4.7 4.4 7.8 10.6 14.1 18.4 18.7 7.8 4.6 16.7 7 26.4 7 11.8 0 21.7-3.3 29.4-9.7 7.9-6.6 11.9-15.4 11.9-26.3 0-8.2-2.5-15.1-7.5-20.6-4.6-5.1-11.7-9.9-21.2-14.1m152.1 5.5c3.7-5.1 5.6-11.2 5.6-18.1 0-9.9-3.6-18.1-10.8-24.4-7-6.2-16.1-9.3-27-9.3h-38.2c-2 0-3.6 1.6-3.6 3.6v107.9c0 2 1.6 3.6 3.6 3.6h48.1c11.3 0 20.7-3.3 28-9.7 7.4-6.6 11.1-15.2 11.1-25.6 0-7.2-1.9-13.4-5.7-18.6-2.8-3.9-6.5-7-11.1-9.4m-26-10.5c-1.8 1.6-4.4 2.4-7.9 2.4h-11.6V29.1h11.6c3.5 0 6.2.8 8 2.4 1.7 1.5 2.5 3.5 2.5 6.3-.1 2.7-.9 4.8-2.6 6.4m-19.5 27.7h21.6c3.9 0 6.8.9 8.9 2.8 1.9 1.7 2.9 4.1 2.9 7.2 0 3.2-.9 5.6-2.9 7.3-2 1.8-5 2.7-8.9 2.7h-21.6v-20zm167.2-69h-22.1c-2 0-3.6 1.6-3.6 3.6v64.9c0 6.9-1.8 12-5.4 15.6-3.7 3.6-8.5 5.3-14.6 5.3s-10.8-1.8-14.6-5.4c-3.7-3.6-5.5-8.7-5.5-15.5V6.5c0-2-1.6-3.6-3.6-3.6h-22.1c-2 0-3.6 1.6-3.6 3.6v63.3c0 15.1 4.7 27.4 13.9 36.5 9.2 9.1 21.2 13.7 35.5 13.7s26.3-4.6 35.5-13.7 13.9-21.4 13.9-36.5V6.5c-.1-2-1.7-3.6-3.7-3.6m89.7 70.2c4.8-3 8.7-6.9 11.7-11.6 3.7-5.9 5.6-12.6 5.6-20.2 0-11.5-4.1-20.9-12.1-28-7.9-6.9-18.1-10.5-30.4-10.5h-40.5c-2 0-3.6 1.6-3.6 3.6v107.9c0 2 1.6 3.6 3.6 3.6H944c2 0 3.6-1.6 3.6-3.6V79.9h10.7l26.9 36.6c.7.9 1.8 1.5 2.9 1.5h24.8c1.4 0 2.6-.8 3.2-2 .6-1.2.5-2.7-.3-3.8l-28.2-39.1zm-12.5-31.8c0 3.7-1.1 6.6-3.2 8.7-2.2 2.2-5.3 3.2-9.5 3.2h-14.9V29.6h14.9c4.1 0 7.2 1.1 9.4 3.2 2.2 2.2 3.3 5 3.3 8.5M1129 51.6h-51.8c-2 0-3.6 1.6-3.6 3.6v19.1c0 2 1.6 3.6 3.6 3.6h26.1v4c-5.7 7.4-13.9 11-24.8 11-9.9 0-17.5-3-23.5-9-6-6.1-8.9-13.8-8.9-23.5 0-9.5 2.8-17 8.6-23 5.7-6 13.1-8.9 22.5-8.9 11.3 0 20.2 4.7 27.1 14.4.6.8 1.5 1.3 2.5 1.5 1 .1 2-.2 2.8-.8l15.7-12.9c1.5-1.2 1.7-3.3.7-4.9C1114.4 9.3 1098.1 1 1077.5 1c-17.1 0-31.8 5.8-43.5 17.1-11.8 11.4-17.8 25.7-17.8 42.4s6 31 17.8 42.4c11.8 11.4 26.4 17.1 43.5 17.1 11.8 0 22.7-2.9 32.3-8.6 9.6-5.7 17.1-13.3 22.3-22.5.3-.5.5-1.2.5-1.8V55.2c0-2-1.6-3.6-3.6-3.6m96.6 39.3h-48.9V70.8h33.5c2 0 3.6-1.6 3.6-3.6V48.4c0-2-1.6-3.6-3.6-3.6h-33.5V30.1h46.9c2 0 3.6-1.6 3.6-3.6v-20c0-2-1.6-3.6-3.6-3.6H1151c-2 0-3.6 1.6-3.6 3.6v107.9c0 2 1.6 3.6 3.6 3.6h74.5c2 0 3.6-1.6 3.6-3.6V94.5c.1-2-1.5-3.6-3.5-3.6m90.7-17.8c4.8-3 8.7-6.9 11.7-11.6 3.7-5.9 5.6-12.6 5.6-20.2 0-11.5-4.1-20.9-12.1-28-7.9-6.9-18.1-10.5-30.4-10.5h-40.5c-2 0-3.6 1.6-3.6 3.6v107.9c0 2 1.6 3.6 3.6 3.6h22.1c2 0 3.6-1.6 3.6-3.6V79.9h10.7l26.9 36.6c.7.9 1.8 1.5 2.9 1.5h24.8c1.4 0 2.6-.8 3.2-2 .6-1.2.5-2.7-.3-3.8l-28.2-39.1zm-12.5-31.8c0 3.7-1.1 6.6-3.2 8.7-2.2 2.2-5.3 3.2-9.5 3.2h-14.9V29.6h14.9c4.1 0 7.2 1.1 9.4 3.2 2.2 2.2 3.3 5 3.3 8.5m154.1 31.2h18c1.9 0 3.5-1.5 3.6-3.4l4.1-62.3c.1-1-.3-2-1-2.7-.7-.7-1.6-1.1-2.6-1.1h-26.3c-1 0-1.9.4-2.6 1.1-.7.7-1 1.7-1 2.7l4.2 62.3c.1 1.9 1.7 3.4 3.6 3.4m22.6 15.4c-3.6-3.6-8.1-5.5-13.3-5.5-5.4 0-10 1.8-13.6 5.5-3.6 3.6-5.4 8.1-5.4 13.3 0 5.3 1.8 9.8 5.4 13.4 3.6 3.6 8.2 5.4 13.6 5.4 5.2 0 9.7-1.8 13.3-5.4 3.6-3.6 5.4-8.1 5.4-13.4 0-5.2-1.8-9.7-5.4-13.3" fill="#d61518" clip-path="url(#SVGID_2_)"/><path class="st0" d="M265.8 27.4c0-.2.1-.5 0-.7-.1-.2.3-.7.2-.9-.1-.2-.5-.3-.6-.6-.1-.2-.1-.6-.2-.8-.1-.2-.7-.1-.9-.2-.2-.2 0-.7-.2-.8-.2-.1-.7.2-.9.1-.2-.1-.2-.7-.4-.8-.2-.1-.5-.2-.7-.3-.2-.1-.6.2-.8.2-.2-.1-.4-.4-.7-.4-.2 0-.5.2-.8.2-.2 0-.4-.4-.7-.5-.2 0-.5.3-.8.3-.2 0-.5-.6-.7-.6-.2 0-.5.4-.8.4-.3 0-.5.1-.8.1-.3 0-.5-.2-.8-.2-.3 0-.5-.1-.8-.1-.3 0-.5-.3-.8-.3-.2 0-.5.1-.8.1-.2 0-.5-.3-.7-.3-.2 0-.5.3-.8.3-.2 0-.5.3-.8.3-.2 0-.5-.6-.7-.6-.2 0-.5.4-.8.4-.3 0-.5.1-.8.1-.3 0-.5-.4-.8-.4-.3 0-.5-.3-.8-.3-.3 0-.5.4-.8.3-.3 0-.6-.2-.8-.2-.3 0-.6-.3-.9-.3-.2 0-.5.1-.7.1-.2 0-.4.3-.7.3-.2 0-.4.5-.6.5-.2.1-.5 0-.7 0-.2.1-.5 0-.7.1-.2.1-.2.5-.4.7-.2.1-.7-.1-.9 0-.2.2-.3.5-.5.7l-.6.6c-.2.2.1.7-.1.9s-.4.4-.5.6c0 0 .2 0 .2-.1-.1.2-.3.3-.4.5s-.4.3-.5.5c-.1.2 0 .5-.1.7l-.3.6c-.1.2.1.6 0 .8-.1.2-.6.2-.7.4-.1.2.1.6 0 .8-.1.2-.1.4-.2.7-.1.2-.6.2-.7.4-.1.2.2.7 0 .9-.1.2-.1.5-.3.8-.1.2-.8.2-.9.4-.1.2-.1.5-.2.8-.1.2-.2.5-.3.7-.1.2-.4.3-.4.6l-.3.6c-.1.2.2.6.1.8l-.3.6c-.1.2-.6.2-.7.4-.1.2 0 .5-.1.7-.1.2-.4.3-.5.5-.1.2.4.6.3.9-.1.2-.4.4-.4.6-.1.2.1.5.1.7-.1.2-.5.3-.6.5-.1.2-.3.4-.4.6-.1.2.2.5.1.7-.1.2 0 .5-.1.7-.1.2-.6.3-.7.5-.1.2.3.6.2.8-.1.2-.4.3-.5.6l-.3.6c-.1.2-.4.3-.5.6-.1.2.1.5 0 .7-.1.2.1.5 0 .7s-.4.3-.5.5c-.1.2.2.6.1.8-.1.2-.3.4-.4.6-.1.2-.4.3-.5.6-.1.2 0 .5-.1.7-.1.2-.4.3-.5.6-.1.2-.1.5-.2.7l-.3.6c-.1.2-.1.5-.2.7l-.3.6c-.1.2-.3.4-.4.6-.1.2.1.6 0 .8-.2.3-.4.5-.6.8l-.1-.1c-.1.2-.4.3-.5.5-.1.2 0 .5-.1.7-.1.2 0 .5-.1.7-.1.2-.7.1-.8.3-.1.2 0 .5-.1.7-.1.2-.4.3-.5.4-.1.2.3.8.2.9-.1.2-.3.3-.5.5-.1.2-.3.4-.4.5l-.5-.4c-.2.2-.3.4-.5.5-.2.1-.1.5-.3.6-.2.2-.4.2-.6.3-.2.1-.4 0-.6.1-.2.1-.1.5-.3.6-.1 0-.2-.2-.4-.1-.3 0-.6-.1-.8-.1-.2 0-.4.1-.7.1-.1 0-.3.3-.4.2-.2 0-.3-.4-.5-.5-.2-.1-.6.4-.8.3-.2-.1-.1-.7-.3-.8-.3-.1-.7.1-.9-.1-.2-.1-.1-.6-.3-.7-.2-.1-.8.2-.9.1-.2-.2-.4-.4-.5-.6-.2-.2.1-.8-.1-1-.1-.2-.7 0-.8-.2-.1-.2-.3-.3-.4-.5-.1-.2-.2-.4-.4-.6-.1-.2-.3-.4-.5-.6-.1-.2.2-.7 0-.9-.1-.2-.6-.2-.7-.4-.1-.2-.5-.3-.6-.5-.1-.2-.1-.5-.3-.7-.1-.2.2-.7 0-.9-.1-.2-.6-.2-.7-.5-.1-.2-.1-.4-.2-.6-.1-.2-.1-.4-.2-.6-.1-.2-.1-.5-.2-.7-.1-.2-.5-.3-.6-.5-.1-.2 0-.5-.1-.7-.1-.2-.1-.5-.2-.7-.1-.2.1-.5 0-.7-.1-.2-.7-.2-.8-.4s.2-.6.1-.8c-.1-.2-.4-.3-.5-.6-.1-.2-.5-.3-.6-.5-.1-.2.1-.6 0-.8-.1-.2-.3-.4-.4-.6-.1-.2.2-.6.1-.9-.1-.2-.5-.3-.6-.5-.1-.2 0-.5-.1-.8-.1-.2-.5-.3-.6-.5-.1-.2-.1-.5-.2-.7l-.3-.6c-.1-.2-.1-.5-.2-.7-.1-.2-.4-.3-.5-.5-.1-.2-.6-.2-.7-.4-.1-.2.1-.5 0-.7 0 .1.3 0 .3.1-.1-.2-.5-.3-.6-.5-.1-.2-.3-.4-.5-.6-.1-.2-.3-.4-.4-.7-.1-.2-.1-.5-.2-.8-.1-.2-.1-.5-.2-.7-.1-.2-.3-.4-.4-.6-.1-.2 0-.6-.1-.8-.1-.2-.6-.2-.8-.4-.1-.2-.1-.6-.3-.8-.2-.2-.6-.2-.8-.4-.2-.2-.3-.4-.4-.6-.2-.2-.2-.5-.4-.6-.2-.2-.3-.4-.4-.6-.1-.2-.2-.4-.4-.6-.2-.2-.3-.5-.5-.8-.2-.2-.5-.3-.7-.5-.2-.2-.4-.3-.6-.5-.2-.2-.3-.4-.4-.6-.2-.1-.5-.2-.7-.3-.2-.1-.2-.5-.4-.6-.2-.1-.8.3-1 .1-.2-.1-.1-.7-.3-.9-.2-.1-.5-.2-.7-.3-.2-.1-.6.1-.9-.1-.2-.1-.3-.5-.5-.6-.2-.1-.5-.1-.7-.2-.2-.1-.5-.1-.7-.2-.2-.1-.1-.8-.4-.9s-.7.2-.9.1c-.2-.1-.4-.4-.6-.4-.2-.1-.4-.3-.6-.3-.2-.1-.5.1-.8 0-.2-.1-.2-.7-.5-.8-.2-.1-.4-.2-.7-.3-.2-.1-.7.5-.9.4-.2-.1-.3-.8-.5-.9-.2-.1-.5-.1-.7-.1-.2-.1-.6.4-.8.4-.2-.1-.5-.1-.7-.1-.2 0-.4-.3-.7-.3-.2 0-.5.1-.8.1-.2 0-.5-.1-.7-.1-.2 0-.5-.3-.7-.3-.2 0-.5.1-.7 0-.2 0-.5-.2-.7-.2h-.7c-.2 0-.5.3-.7.3-.2 0-.5-.3-.7-.3-.2 0-.5-.2-.8-.1h-.8c-.2 0-.5.3-.7.3-.2 0-.5.4-.7.4-.2 0-.5-.3-.7-.2-.2 0-.5-.1-.7-.1-.2 0-.4.4-.6.4-.2 0-.4.3-.6.4-.2 0-.5-.1-.7 0-.2.1-.6-.3-.8-.3-.2.1-.4.4-.7.4-.2.1-.6-.1-.8 0s-.5.2-.7.2c-.2.1-.5.1-.7.2-.2.1-.3.5-.6.6-.2.1-.4.3-.7.4-.2.1-.6-.2-.9-.1-.2.1-.3.6-.5.6-.2.1-.5-.1-.7 0-.2.1-.3.5-.5.6s-.6-.2-.8-.1c-.2.1-.4.1-.6.2l-.6.3-.6.3c-.2.1-.2.6-.4.7-.2.1-.3.3-.5.4-.2.1-.6 0-.7.1-.2.1 0 .7-.2.8l-.6.3c-.2.1-.6 0-.7.2-.2.1-.3.3-.5.4-.2.2-.1.7-.3.9-.2.2-.5.1-.7.3-.2.2-.3.4-.5.6-.2.2-.4.3-.6.5-.1.2-.5.1-.7.3-.1.2-.1.5-.2.7-.1.2-.1.5-.3.6-.1.2-.4.2-.5.4-.2.2-.6.1-.7.3-.2.2-.3.4-.4.6-.2.2-.2.5-.3.7-.2.2-.3.4-.4.6-.1.2-.7.1-.8.3-.1.2.2.8.1 1-.1.2-.7.2-.8.4-.1.2-.1.5-.2.7-.1.2-.6.2-.8.4-.1.2-.3.4-.4.7-.1.2.1.6-.1.8-.1.2-.5.3-.6.5-.1.2 0 .6-.1.8s-.2.5-.3.7c-.1.2-.1.5-.2.7-.1.2-.5.3-.6.5-.1.2.2.6.1.8-.1.2-.4.4-.4.6-.1.2-.2.4-.3.7-.1.3-.3.5-.4.8h-.2l.6.2h-.3c-.1.2.1.5.1.7-.1.2-.3.4-.4.6 0 .2-.1.5-.1.7v.6c0 .2.1.4.1.7 0 .2-.5.4-.5.6 0 .2.3.4.3.7 0 .2-.1.4 0 .6 0 .2.2.4.2.6 0 .2-.4.5-.3.7l.3.6c.1.2.3.4.5.6.1.2.2.5.3.7.2.2.2.5.4.7.2.2.8-.2 1 0 .2.1.4.3.6.5.2.1.4.3.6.4.2.1.4.3.6.3.2.1.4.3.7.4s.5-.3.8-.3c.2 0 .4.3.7.4.2 0 .5.2.7.3.2 0 .5-.1.7-.1.2 0 .5-.4.7-.4.2 0 .5.1.7.1-.1 0-.2.3-.3.3.1 0 .3-.2.4-.2.3 0 .5.2.8.2.3 0 .5-.7.8-.7.3 0 .5.3.8.3h.7c.2 0 .5.3.7.3.2 0 .5 0 .7-.1.2 0 .4-.4.6-.4s.4.1.6.1c.2 0 .4.4.6.4.2 0 .5.2.8.2.3 0 .5-.4.7-.4.3 0 .5-.2.7-.2.2 0 .5-.1.7-.2.2-.1.6.2.8.1.2-.1.3-.5.5-.6.2-.1.5 0 .7-.2.2-.1.2-.4.4-.6.2-.1.5-.1.7-.2.2-.2.3-.4.5-.5.2-.2 0-.6.2-.8.2-.2.3-.3.4-.6.1-.2.5-.3.6-.5.1-.2.4-.3.5-.5.1-.2-.2-.6-.1-.8.1-.2.5-.3.6-.5.1-.2 0-.5.1-.7.1-.2.6-.2.7-.4.1-.2 0-.5.2-.7.1-.2.4-.3.5-.5l.4-.4c.2-.2-.1-.8.1-.9.2-.2.5-.1.7-.2.2-.1.3-.4.5-.5.2-.1.3-.4.5-.6.3-.2.8.2 1 0 .2-.1.4-.4.6-.5h.2c.3 0 .6-.6.9-.6.3 0 .6-.1.8-.1.2 0 .4.7.6.7.2 0 .4-.1.6-.1.1 0 .2-.1.3-.1.1 0 .4-.3.5-.2.1.1.3.1.5.2.1 0-.1.4 0 .5.2.1.4.3.6.4.2.1.4.3.6.5-.1-.1-.1-.2-.2-.2l.3.3c.2.2.5.3.7.5l.6.6c.2.2.2.5.4.7.2.2.3.5.5.7l.6.6c.1.2.3.3.4.4.1.2-.1.5 0 .7.1.2.2.4.2.5.1.2.8.1.9.3.1.2.1.5.1.7l.3.6c.1.2.3.4.3.6.1.2-.4.7-.3.9s.8.1.9.3c0-.1-.4 0-.4-.1.1.2.3.3.4.5l.3.6c.1.2 0 .5.1.7.1.2.4.3.5.5.1.2-.1.6 0 .8.1.2.4.4.4.6.1.2-.1.6 0 .8l.3-.2c.1.2-.1.6-.1.8.1.2.6.3.7.6.1.3.1.6.2.8.1.3-.1.6 0 .9.1.3.4.5.5.7.1.3.1.6.2.8.1.2.4.4.5.6.1.2 0 .5 0 .8.1.2.4.4.5.6.1.2.2.5.2.7.1.2 0 .5.1.7.1.2-.1.6 0 .8s.3.4.4.6c.1.2.4.4.5.6.1.2 0 .5.1.7.1.2 0 .5.1.7s0 .5.1.7c.1.2.5.3.6.5.1.2-.2.6-.1.8.1.2.4.3.5.6.1.2.1.4.2.7.1.2.3.4.4.6.1.2-.2.6-.1.8.1.2.6.3.7.5.1.2-.1.5 0 .7.1.2 0 .5.1.7.1.2.8.1.9.3.1.2-.4.7-.3.8l.2-.4.1.2-.1.1h.2l.2-.1c.1.2 0 .5.1.7.1.2-.1.6 0 .8.1.2.4.3.5.5.1.2-.1.6 0 .7.1.2.5.2.6.4.1.2.3.4.4.6.1.2.4.3.6.5.1.2.1.5.3.7l.3.6c.2.3.6.4.9.7.1.2-.2.8-.1 1 0 0 .1.1.1.2.1.2.5.2.6.3l.3.6c.2.2.2.4.4.6.2.1.3.3.5.4.2.1.5.1.6.3.1.1.2.1.3.1.2.1.2.5.4.6.2.1.7-.2.9-.1.2.1.1.8.3.9.2.1.7-.2.9-.1.2.1.3.5.5.6l.6.3c.2.1.4.3.6.4.2.1.4.3.6.3.2.1.5-.1.7 0 .2.1.5-.1.7 0 .2.1.5-.1.7-.1.2.1.4.3.6.3h.7c.2 0 .4.3.6.3.2 0 .5-.1.7-.1.2 0 .4.4.6.4.2 0 .5-.3.7-.3h.7c.2 0 .4.4.7.4.1 0 .3-.3.4-.3.2 0 .5.6.7.5.2-.1.3-.5.4-.5.2 0 .4-.2.6-.2.2 0 .4.2.6.2.2 0 .4.1.6.2.2.2.5.4.5.6 0 .2-.2.6-.3.8 0 .1-.3 0-.4.1 0 .1.2.2.2.3-.1.2-.6.3-.7.6-.1.2-.3.4-.4.7-.1.2.3.7.1 1-.1.3-.5.5-.7.8-.1.2-.2.4-.4.7-.1.2.2.6.1.8l-.3.6c-.1.2-.7.2-.8.4-.1.2.4.7.3.9 0 .1-.6-.1-.6 0-.1.2.1.6 0 .8-.1.2-.5.3-.6.5-.1.2.3.6.2.8s-.3.3-.4.5c-.1.2-.3.3-.4.5v.3l.2-.5s-.2.2-.2.3v-.1h-.2c-.1.2 0 .5-.2.8-.1.2-.3.4-.4.6-.1.2 0 .6-.1.8-.1.2-.7.2-.8.4-.1.2-.1.5-.3.7-.1.2-.3.4-.5.6l.2.1c0 .1.2.3.1.4l-.1-.1-.4-.3.5.3-.5-.2.4.2h.1l-.5-.3v.1l.5.4s-.3-.2-.4-.1l.1.1s0 .1-.1.1l-.1-.2-.2.2c0-.1.1-.1.1-.2-.1.2-.1.4-.2.6 0-.1-.2-.3-.2-.3-.1.2-.2.4-.4.6 0 0 .1.1 0 .1l.1.1c-.1.2-.3.3-.4.4-.1.2-.4.3-.5.5-.1.1.1.4 0 .5-.2.3-.8.3-1 .5v.2l-.2-.1c-.1.1-.2.4-.3.5-.1.1 0 .5-.1.6-.2.2-.7.1-.9.2-.1.1-.3.1-.4.2l.4.3c-.2.1-.5.2-.7.3s-.5.1-.7.2c-.2.1-.4.3-.6.4l.1.2c-.2.2-.3.5-.5.6-.2.2-.5.2-.7.4-.2.2-.7 0-.9.1-.2.1-.3.5-.6.6-.2.1-.4.2-.6.2v.1c-.2.1-.6-.2-.8-.1-.2.1-.2.6-.4.7l-.1-.3c-.2.1-.4.3-.7.4-.2.1-.6-.1-.8-.1-.2 0-.3.2-.5.2s-.4.1-.5.2h-.4l.1.5c-.3.1-.6-.4-.9-.4-.3 0-.5.5-.8.6-.3 0-.6 0-.8.1h-.3c-.1 0-.3-.2-.4-.2-.2 0-.5.2-.7.2-.1 0-.1-.2-.2-.2h-.4c-.1 0-.2-.1-.4-.1-.1 0-.3.2-.4.2-.1 0-.3-.2-.4-.2 0 0-.1.1-.2.1-.2 0-.3-.5-.5-.5-.1 0-.1-.1-.2-.1s-.2.1-.3.1c-.3-.1-.7-.1-1-.2l-.1.3c-.2-.1-.5-.2-.7-.3s-.3-.5-.6-.6c-.2-.1-.6.1-.8 0-.2-.1-.3-.5-.6-.6-.1-.1-.2-.3-.3-.4-.3-.2-.5-.4-.8-.6l-.3.2c-.2-.1-.2-.4-.3-.5-.2-.1-.4-.1-.5-.2-.2-.2-.6-.2-.8-.4-.2-.2-.6-.2-.8-.4-.1-.1 0-.3-.1-.3l-.2.1c-.2-.2-.2-.6-.5-.8l.2-.2c-.2-.2-.5-.2-.7-.4-.2-.2-.7.1-.9-.1-.2-.2-.4-.3-.6-.5-.2-.1 0-.6-.2-.7-.2-.1-.2-.5-.3-.6-.1-.1-.3 0-.4-.1 0 0-.1.1-.1 0-.2-.2-.1-.6-.3-.8-.1 0-.3.1-.4.1-.1-.1-.3-.2-.4-.3-.2-.1-.6.1-.8-.1-.2-.1-.3-.2-.5-.3l.2-.4s-.1.2-.2.2c-.1-.1 0-.5-.1-.6-.1 0-.1-.2-.1-.2-.2-.1-.4-.1-.5-.2l-.2.2-.6-.6c-.2-.1-.5 0-.7-.1-.2-.1-.1-.5-.3-.6-.2-.1-.6.1-.7 0-.2-.1-.2-.4-.4-.5-.2-.1-.2-.5-.4-.6-.2-.1-.6.3-.9.2-.2-.1-.3-.5-.5-.6s-.5-.1-.7-.2c-.2-.1-.6.2-.8.1-.2-.1-.4-.3-.6-.3-.2-.1-.3-.7-.5-.7-.2-.1-.6.5-.9.5-.2-.1-.4-.3-.6-.4-.2-.1-.5 0-.7-.1-.2-.1-.4-.3-.7-.4-.2 0-.5.3-.8.3-.2-.1-.4-.1-.7-.1-.2 0-.4-.3-.6-.3-.2 0-.4-.5-.6-.5-.2 0-.5.1-.7.1-.2 0-.4-.1-.6-.1h-.6c-.2 0-.4.1-.6.1h-.3c-.3 0-.5.6-.7.6-.3 0-.6-.1-.8-.1-.3.1-.4.4-.7.5-.2.1-.7-.2-.9-.1-.2.1-.4.2-.5.4-.2.1-.4.2-.5.4-.2.1-.1.5-.3.6-.1.1-.1.5-.2.6-.1.2-.8-.1-1 0-.1.2.3.8.2 1-.1.2-.6.1-.7.3-.1.2-.4.4-.5.6-.1.2.4.7.3.9-.1.2-.7.3-.7.5s.1.5 0 .8c-.1.2-.2.5-.3.7v.7c0 .3-.4.4-.4.6 0 .1.3.3.3.4 0 .2-.4.4-.4.7 0 .2.5.5.4.7 0 .2-.1.5-.1.7 0 .2.2.5.3.7s-.3.5-.3.8c0 .2 0 .5.1.8 0 .2.6.4.6.6 0 .2-.2.5-.1.8 0 .2.1.5.1.7.1.2.3.4.3.7.1.2.2.4.3.7.1.2.2.5.2.7.1.2-.5.7-.4.9.1.2.3.4.4.6.1.2.6.3.7.5.1.2-.3.6-.2.9.1.2.2.5.3.7.1.2.3.4.4.6.1.2.3.4.4.6l.3.6c.1.2.3.4.4.6.1.2.3.4.4.6.1.2.4.3.6.5.1.2.4.3.5.5.2.2 0 .6.2.8.2.2.1.5.3.7.2.2.5.2.7.4.2.2.3.4.4.6.2.2.6.1.8.2.2.2.1.6.3.7.1.1.2.2.3.4 0 0 .2-.2.3-.2l.1.1s-.2.3-.1.4c.2.3.5.5.7.8l.1-.1.3.3c.1.1.4.2.5.3l-.3.3c.1.1.2.3.3.4.2.2.5.3.8.5.1 0 .4-.2.4-.2l-.1.1-.1.2.3-.4-.3.4.1-.1-.2.2.4-.2-.1-.1-.1.2.1-.2.1.1v-.2s-.1.2 0 .2h.1l-.2.3.3-.5c.2.2.3.4.5.6.2.2.2.6.4.7l.1-.2.2-.2c.2.1.2.5.3.6.2.1.4.2.5.3.2.1.3.3.5.4.2.1.2.3.4.4.2.1.6-.2.8-.1.2.1.2.6.4.7.2.1.3.4.5.5l.2-.3c.2.1.6 0 .8.1l-.2.4v.3l.3-.5c.1.1 0 .6.2.7l.1-.1c.3.1.5.3.8.4.2.1.2.3.4.4l.3-.5-.1.1c.2.1.4.4.6.5.2.1.5.1.8.2.2.1.4.3.6.3v.1c.2.1.5.2.7.3.2.1.5 0 .7.1.2.1.5.1.7.2s.3.6.5.6c.1 0 .2-.1.2-.1.2.1.6-.4.8-.3.2.1.2.7.4.8h.1c.3.1.6-.2.9-.1l-.1.2c.2.1.5-.1.7 0 .2.1.4.4.6.4l.6.3s.2-.6.3-.6c.2 0 .3.2.5.2.2.1.4.2.7.3.2.1.4.4.6.4.2.1.5-.2.8-.2v-.1l-.1-.1v.4l.1-.3-.1.2.2-.1-.1-.2v.5l.1-.2v-.2l.1.6-.2-.1.1-.3.1-.1h.1l-.1.5-.1.1.1-.2v-.2h.1v.3l.1-.5-.1.3c.3.1.7-.1 1 0v-.2.6h.3c.2 0 .5-.2.7-.2.3 0 .6-.1.8-.1.2 0 .4.3.6.4h.6c.2 0 .4-.1.6-.1 0 0 0 .1.1.1.2 0 .4-.1.6-.1.2 0 .5-.2.7-.1.2 0 .5.6.7.6.2 0 .4-.4.7-.4.2 0 .4.1.7.1v.2c.1 0 .2-.6.4-.6l.1.5c.2 0 .3-.4.5-.4s.5.5.7.4c0 0 .1 0 .1-.1.3-.1.5-.6.8-.5.3-.1.5.2.8.1.2 0 .4-.2.7-.3h.7c.2 0 .4-.3.6-.4.2-.1.5.2.8.1.2-.1.5 0 .7-.1.2-.1.4-.3.6-.4.2-.1.5.1.8 0s.4-.4.6-.4.4-.4.6-.5c.2-.1.6.1.8.1.2-.1.5-.1.8-.2.2-.1.5-.1.8-.1.2-.1.5 0 .8-.1.2-.1.2-.9.4-1 .2-.1.6.1.8 0 .2-.1.4-.4.6-.5.2-.1.5-.1.8-.2.2-.1.4-.2.6-.2.2-.1.3-.3.5-.4.2-.1.5.1.7 0 .2-.1.2-.6.4-.8.2-.1.5-.1.7-.3.2-.1.6.1.8 0 .2-.1.2-.5.4-.6.2-.1.6.3.8.2.2-.1.1-.7.3-.9l.6-.3c.2-.1.7.1.9 0 .2-.1.5-.2.7-.3.2-.1.2-.8.4-.9.2-.1.7.1.9 0 .2-.1.2-.7.4-.8.2-.1.6 0 .8-.2.2-.1.5-.1.7-.3l.6-.6c.2-.2.4-.4.6-.5.2-.2.5-.2.7-.4l-.3-.4c.1-.1.3 0 .4-.1.2-.2.4-.5.6-.7.2-.2.3-.4.4-.6v-.2c.1 0 .2 0 .2-.1.2-.2.6 0 .8-.2.1-.2.3-.3.4-.5.1-.2.3-.3.4-.5s.2-.4.3-.5c.1-.1.1-.4.3-.5.2-.2.2-.5.4-.7.2-.2.3-.4.5-.7 0-.1.1-.1.2-.1.2-.3.6-.4.9-.6.1-.2.5-.2.6-.4.1-.2-.1-.6 0-.8.1-.2.1-.4.2-.6.1-.2.3-.3.5-.5.1-.2.1-.6.2-.8.1-.2.4-.4.5-.6.1-.2.3-.4.4-.7.1-.2.4-.4.5-.6.1-.2.2-.4.4-.6l.3-.6c.1-.2 0-.5.1-.7.1-.2.7-.1.8-.3.1-.2-.3-.7-.2-.9.1-.2.5-.3.6-.5l.3-.6c.1-.2.1-.3.2-.5s.5-.2.6-.3c0-.1-.4-.4-.3-.4.1-.2.1-.4.2-.6.1-.2.6-.2.7-.4.1-.2 0-.5.1-.7.1-.2.4-.3.5-.4.1-.2-.1-.6 0-.8.1-.2.5-.3.6-.5.1-.2-.2-.6-.1-.9.1-.2.8-.1.9-.4.1-.2-.3-.7-.1-.9.1-.2.7-.2.8-.4.1-.2.2-.4.4-.6.1-.2-.2-.7-.1-1 .1-.2.3-.4.4-.6.1-.2.7-.2.8-.4.1-.2-.1-.6 0-.9l.3-.6c.1-.2.4-.3.5-.5l.3-.6c.1-.2 0-.5.1-.8.1-.2.4-.4.5-.6.1-.2.2-.4.3-.7.1-.2-.3-.7-.1-.9.1-.2.8-.2.9-.4.1-.2-.1-.6.1-.8.1-.2.5-.3.6-.6.1-.2-.1-.6 0-.9.1-.2.7-.2.8-.4.1-.2-.4-.7-.3-.9.1-.2.5-.3.6-.5.1-.2-.1-.5 0-.7.1-.2.1-.4.2-.7.1-.2.2-.4.2-.6.1-.2.6-.2.7-.4.1-.2 0-.5.1-.7.1-.2.6-.2.7-.5.1-.2.1-.5.2-.7.1-.2-.4-.7-.3-.9.1-.2.7-.2.8-.4.1-.2.1-.4.2-.6.1-.2 0-.5.1-.7.1-.2.3-.4.4-.6.1-.2-.3-.6-.2-.9.1-.2.5-.3.6-.5.1-.2.4-.4.4-.6s.2-.4.3-.7c.1-.2.3-.4.3-.6.1-.2-.1-.5 0-.8.1-.2.1-.5.2-.7.1-.2.4-.4.5-.6.1-.2-.2-.6-.1-.8.1-.2.4-.4.5-.6.1-.2.3-.4.4-.6.1-.2-.2-.6-.1-.8.1-.2.3-.4.4-.6.1-.2.2-.5.3-.7.1-.2.7-.2.8-.4.1-.2-.1-.6 0-.8.1-.2.3-.4.4-.6.1-.2-.1-.5 0-.7.1-.2-.1-.5 0-.7.1-.2.3-.4.3-.6s.2-.4.3-.6c.1-.2.4-.3.5-.5.1-.2.1-.4.2-.6.1-.2-.2-.5-.1-.7.1-.2.3-.3.4-.5.1-.2.2-.4.2-.6h.1v.2l-.3-.1v-.1c.1-.2.4-.3.5-.5.1-.1.2-.2.3-.4.1-.2 0-.4.1-.6.1-.2.2-.4.2-.6.1-.2.2-.4.4-.6.1-.2.3-.3.5-.5.1-.3.3-.5.4-.7.1-.2.2-.5.3-.8.1-.2.5-.3.7-.6.1-.2-.4-.6-.3-.8.1-.2.6-.2.7-.3 0-.1.2-.2.2-.3.1-.2-.3-.6-.2-.9.1-.2.2-.5.3-.7.1-.2.2-.5.3-.7h-.1v-.1l.4.2.2.1-.3-.2s-.1-.1-.1-.2c.1-.3.2-.5.3-.8.1-.3.2-.5.3-.8 0 .1-.1.2-.1.2.1-.2.5-.2.6-.4.1-.2.4-.3.4-.5.1-.2-.2-.6-.1-.8.1-.3.3-.5.5-.7.1-.3.2-.5.3-.8.1-.2 0-.5.1-.8.1-.2.4-.4.5-.6.1-.2 0-.5.2-.8l.5.3-.3-.2s.1 0 0 0l-.2-.1s.4.1.4 0h.1c.1-.2-.2-.6-.2-.8.1-.2.3-.3.4-.5.1-.2.3-.4.3-.6h.2l-.6-.1.4.1.2.1c.1-.2-.1-.5-.1-.7.1-.2.4-.3.5-.5.1-.2-.3-.6-.3-.8.1-.2 0-.3.1-.5s.7-.3.8-.5c.1-.2-.1-.6 0-.8.1-.2.3-.5.4-.7.1-.2.1-.5.2-.8.1-.2.2-.5.4-.7.1-.2.5-.3.6-.5.1-.2.4-.4.5-.6.1-.2.1-.5.2-.8.1-.2-.2-.7-.1-.9.1-.2.6-.3.7-.5.1-.2 0-.5.1-.8.1-.2.2-.4.3-.7.1-.2.2-.5.3-.7.1-.2.1-.5.2-.7.1-.2.7-.2.8-.4.1-.2 0-.5.1-.8.1-.2.4-.4.5-.6.1-.2-.1-.6 0-.8l.5.3-.3-.2c0-.1.4 0 .4 0l-.4-.2c.1-.2.3-.4.5-.6.1-.2.5-.3.6-.5.1-.2-.2-.7-.1-.9.1-.2.4-.3.5-.6.1-.2-.1-.6 0-.8.1-.2.6-.2.7-.5.1-.2.2-.5.3-.7.1-.2.2-.5.3-.7.1-.2.2-.5.3-.7.1-.2.2-.5.3-.7.1-.2.1-.5.2-.7.1-.2.2-.5.3-.7.1-.2.2-.5.3-.7.1-.2-.2-.5-.2-.8.1-.2.7-.3.8-.5 0-.2-.2-.5-.2-.7 0-.2-.1-.5-.2-.7 1.7.6 1.5.4 1.5.2M159.6 134.7l.3-.3-.3.3zm19.9 8.2c0-.1 0 0 0 0m52.3-36.9c-.1 0-.1 0 0 0-.1 0-.1 0 0 0m-76.9-48.9c-.1 0-.1 0 0 0h-.3.3"/><path class="st0" d="M191.5 27.4s.1 0 .1.1l.1.1-.2-.2m-35.6 75.1c.1 0 .1 0 0 0m1210.3-43v-.3c-.1.1-.1.2 0 .3m23.4-29.2s.1 0 0 0h.3-.3"/><path class="st0" d="M1430.1 42s.5.1.5 0c.1-.2-.2-.6-.2-.8 0-.2.2-.4.1-.7 0-.2-.2-.4-.3-.7-.1-.2-.1-.5-.2-.7-.1-.2-.3-.4-.5-.6-.2-.2-.4-.2-.7-.3l-.6-.3c-.2-.1-.4-.5-.6-.5h-.7c-.2 0-.5-.1-.8-.1-.2 0-.4.5-.6.6-.2.1-.6-.2-.8-.2-.2.1-.4.3-.7.4-.2.1-.5 0-.8.1-.2.1-.4.4-.7.5-.2.1-.4 0-.6 0-.2.1-.4-.1-.6 0-.2 0-.3.3-.5.4-.1 0-.2.2-.3.2-.2 0-.4-.4-.6-.4-.2 0-.5.2-.7.1-.2-.1-.4 0-.6-.1-.2-.1-.5-.2-.7-.3s-.4-.3-.6-.4c-.1 0-.1-.2-.2-.2l-.1.3c-.2-.1-.4-.1-.5-.2-.2-.1-.2-.5-.3-.6-.2-.1-.5.1-.7 0-.2-.1-.2-.4-.4-.5-.2-.1-.3-.2-.5-.3-.2-.2-.5-.3-.7-.5-.2-.1-.5-.3-.8-.4-.2-.1-.5-.2-.7-.3-.2-.1-.3-.4-.5-.6-.2-.1-.4-.3-.6-.4-.2-.1-.6 0-.8-.2-.2-.1-.4-.5-.6-.6-.2-.1-.4-.4-.6-.6-.2-.1-.6-.2-.8-.3-.3-.1-.6 0-.9-.1-.3-.1-.5-.3-.7-.4-.3-.1-.4-.5-.7-.6-.3-.1-.6.2-.9.1-.3-.1-.4-.4-.7-.5-.2-.1-.6.1-.8 0-.2-.1-.5-.2-.7-.2-.2-.1-.5-.1-.7-.2-.2-.1-.4-.4-.6-.5-.2-.1-.5 0-.7 0-.2 0-.5.1-.7.1-.2 0-.4-.3-.6-.4h-.7c-.2 0-.5.1-.7.1-.2 0-.5-.3-.7-.4-.2 0-.5.1-.7.1-.2 0-.5-.1-.7-.1-.2 0-.5 0-.7-.1-.2 0-.5.1-.7.1-.2 0-.5-.1-.7-.1-.3 0-.6.1-.9.2-.2 0-.4-.2-.6-.2-.3 0-.7-.1-1.1 0-.2 0-.4.4-.6.4s-.4-.1-.6-.1c-.2 0-.4.3-.6.4-.2 0-.5.2-.7.2-.2 0-.6-.4-.8-.3-.2 0-.5.2-.7.2.1 0 .2.3.3.2h-.7c-.2.1-.5-.1-.7-.1l-.6.3-.6.3c-.2.1-.3.5-.5.5-.2.1-.6-.2-.8-.1-.2.1-.3.5-.5.6-.2.1-.4.1-.6.2-.2.1-.4.3-.6.4-.2.1-.6-.1-.8.1-.2.1-.5.2-.7.3-.2.1-.3.4-.5.6-.2.1-.4.3-.6.4-.2.1-.6.1-.8.3-.2.2-.2.6-.4.8-.2.2-.6.2-.8.3s-.5.2-.7.4c-.2.2-.4.3-.6.5-.2.2-.3.4-.5.6-.2.2-.1.6-.3.8-.2.2-.5.1-.7.3-.2.2-.2.5-.3.7-.2.2-.7.1-.9.2-.2.2 0 .7-.2.9-.2.2-.7.1-.8.3-.2.2-.4.3-.5.5-.2.2-.2.5-.4.6-.1.2-.3.4-.5.5l-.3.6c-.1.2-.4.3-.5.5l-.3.6c-.1.2-.3.4-.4.5-.1.2-.2.4-.4.6-.1.2-.2.5-.3.8-.1.2-.4.4-.5.7-.1.2-.2.5-.3.8-.1.2-.3.4-.4.7-.1.2.1.6 0 .8-.1.3-.2.5-.3.7-.1.3-.4.5-.4.7-.1.3.1.6 0 .9-.1.2.1.5 0 .8-.1.2-.1.5-.2.7 0 .2-.4.4-.5.7v.6c0 .2.1.4.1.7 0 .2-.2.4-.3.6 0 .3.1.5.1.8v1.6c0 .2.1.4.1.6 0 .2-.2.5-.1.7 0 .2-.1.5 0 .7 0 .3.5.5.6.7.1.3-.2.6-.1.9.1.3.4.5.5.7.1.2.1.4.1.6.1.2-.2.5-.1.7.1.2.4.3.5.4.1.2 0 .5.1.7.1.2.3.4.4.6.1.2.3.4.4.6.1.2.3.4.5.6.1.2.2.5.3.7.1.2.1.5.2.7.1.2.4.3.6.5.1.2.2.5.3.7.1.2.2.5.4.7.1.2.3.4.5.5.2.2.3.4.5.6.2.2.6.1.7.3.2.2.4.3.5.4.2.2.1.5.3.6.2.2.2.4.4.5l.6.3c.2.2.3.4.5.5.2.2.3.4.5.6.2.2.6.1.8.2.2.1.3.4.5.5.2.1.4.3.6.4.2.1.3.4.5.6.2.1.6 0 .8.1.2.1.4.4.6.5.2.1.5.2.7.3.2.1.4.3.7.5.2.1.3.5.6.7.2.1.6.1.8.2.2.1.5.1.7.2l.6.3c.2.1.3.4.5.5.2.1.5-.1.7 0 .2.1.4.1.6.2.2.1.3.3.5.4.2.1.4.1.6.2.2.1.3.4.5.5.2.1.6-.1.8 0 .2.1.4.1.6.2.2.1.3.4.5.5.2.1.5.2.7.3.2.1.5.2.7.3.1 0 .2.1.4.1.2.1.5.1.8.2.2.1.6-.1.8 0 .2.1.2.5.4.6s.4 0 .6.1c.2.1.3.4.5.5.2.1.4.2.6.2.2.1.5-.1.7 0 .2.1.3.4.6.5l.6.3c.2.1.4.1.7.2-.1 0 0-.5-.1-.5.2.1.4.3.6.4.2.1.3.4.5.5l.6.3h.1l.1-.3c.1 0 .2-.1.3 0-.1 0-.2.1-.2.1.2.1.5.1.7.2.2.1.4.4.6.5.2.1.4.4.6.5.2.1.5.2.7.3.3.2.8 0 1.1.2.2.1.3.4.4.5.1.1 0 .3.1.5.1.1.3.2.4.3.1.1.3.2.4.4.1.1.2.2.3.4 0 .1-.4.4-.3.5.1.2.3.4.3.7v.2c0 .3.3.6.3.9 0 .1-.2.2-.3.3 0 .1 0 .3-.1.4-.1.1.1.4 0 .5l-.3.3c-.1.1-.2.3-.3.4-.1.1-.4-.1-.4-.1-.2.1-.3.2-.5.3-.2.1-.3.4-.5.5-.2.1-.4.2-.6.2-.2.1-.4.1-.6.2-.2.1-.3.4-.5.5-.2.1-.5-.2-.8-.1-.2.1-.4.3-.6.4-.3 0-.6-.2-.9-.2-.3 0-.6.1-.8.1v.3c-.3 0-.5-.3-.8-.3-.3 0-.5.2-.8.2-.3 0-.5-.1-.8-.1-.3 0-.6.2-.8.2-.3 0-.5-.3-.8-.3-.2 0-.4.3-.6.3-.2 0-.3-.4-.5-.4-.3-.1-.6-.1-.8-.2-.2 0-.4-.3-.7-.3-.2 0-.6.4-.8.4s-.5-.1-.7-.1c-.2 0-.4-.4-.6-.5-.2-.1-.5.2-.8.1-.3-.1-.5-.3-.7-.4-.3-.1-.5-.1-.8-.2-.2-.1-.4-.3-.7-.4-.2-.1-.6.1-.8 0-.2-.1-.4-.3-.6-.4h-.2c-.2-.2-.5-.3-.7-.5-.2-.2-.6-.2-.8-.4-.1-.1 0-.6-.1-.7-.1-.1-.4-.1-.6-.2-.1-.1-.3-.2-.4-.3-.1-.1-.2-.3-.4-.4-.2-.2-.3-.4-.5-.5-.2-.2-.6-.2-.8-.4-.3-.2-.5-.5-.8-.6-.2-.2-.5-.2-.7-.4-.2-.2-.4-.3-.6-.5l.1-.2c-.2-.1-.5-.1-.6-.2-.2-.2-.3-.7-.5-.8-.3-.2-.8.1-1.1 0-.3-.1-.6-.4-.9-.4-.3 0-.6.3-.9.4-.3 0-.6-.2-.8-.1-.2.1-.6.2-.8.3-.2.2-.2.7-.4.9-.2.2-.5.2-.6.4-.2.2-.2.5-.4.6-.2.2-.2.4-.4.6-.1.1-.5.1-.7.2-.1.2-.3.3-.4.5-.1.2-.4.2-.5.4-.1.2-.3.3-.4.5-.2.2-.2.4-.4.6-.2.2-.2.5-.3.6-.2.2-.4.3-.5.5-.2.2-.4.2-.6.4-.1.2-.3.4-.4.5-.2.2-.1.5-.2.7-.1.2-.5.2-.6.4-.1.2 0 .6-.2.8-.1.2-.5.2-.6.4-.2.2-.1.5-.3.7-.2.2-.6.1-.8.3-.2.2-.3.4-.5.5-.2.2-.1.5-.2.7-.1.1-.1.4-.2.5-.1.1-.6 0-.7.1-.2.2-.1.5-.3.7-.2.2-.4.3-.6.5-.2.2-.1.5-.2.7-.2.2-.4.3-.6.5-.2.2-.5.3-.6.6-.1.1 0 .3-.1.4-.2.2-.5.3-.7.5-.2.2.1.7 0 .9-.1.2-.6.4-.6.6 0 .2.3.5.4.8 0 .3-.3.7-.2 1 .1.3.5.5.7.7.2.1.3.3.5.4l.6.3c.3.1.6-.1.9 0 .2.1.4.2.6.2.2 0 .4.2.6.2v-.1l.1.1s0-.2.1-.2v.1h1.2c.2 0 .4-.1.6-.1v.3c.2 0 .4-.4.6-.4.2 0 .4.3.6.3.1 0 .2-.2.3-.2.1 0 .2.3.4.3.1 0 .2-.2.3-.2h-.2l-.1.1h.1l-.1.3c.2 0 .5-.2.8-.2.2.1.3.5.6.6.2.1.5.2.8.3.3.2.5.4.8.5.3.2.6.4.9.5.1.1.3 0 .5 0 .1.1.1.4.3.6.1.1.6-.1.7 0 .2.2.3.5.5.7.2.1.5.2.8.3.2.1.3.5.5.7.2.1.5.1.7.2.2.1.3.3.6.5.2.1.4.3.6.4.2.1.6.1.8.2.2.1.5.2.7.3.2.1.4.2.7.3.2.1.4.3.6.4.2.1.4.3.6.4.2.1.4.2.7.3.2.1.5-.1.7 0 .2.1.3.4.5.5.2.1.6-.1.8 0 .2.1.4.5.6.6.2.1.5-.2.7-.1.2.1.3.3.5.4l.6.3c.2.1.6-.2.8-.2.2.1.3.4.5.5l.6.3c.2.1.5-.1.7 0 .2.1.4.4.7.4.2.1.6-.2.8-.2.2 0 .3.4.5.4s.4-.1.6-.1c.2 0 .4.3.6.3.2 0 .5-.3.7-.3.2 0 .4.1.7.2.2 0 .4.3.6.3s.4.2.7.2c.2 0 .4-.2.7-.1.2 0 .4.2.6.2.2 0 .4.2.6.3.2 0 .4-.1.6-.1h.6c.2 0 .4-.3.6-.3.2 0 .4.2.6.2.3 0 .5-.1.8-.1.3 0 .5.1.8.1.3 0 .6.1.9.1.1 0 .2-.3.3-.3h.9c.3 0 .6.3.8.2.3 0 .5-.4.7-.4.3-.1.5-.1.8-.1-.1 0-.1.3-.2.3.2 0 .5.1.7.1.2 0 .4-.6.6-.6.2-.1.5 0 .7-.1.2-.1.5.2.8.2.2-.1.3-.3.5-.4.3 0 .5-.3.7-.3.3-.1.6.3.8.2.2-.1.4-.4.7-.5.2-.1.6.2.8.2.2-.1.4-.3.7-.4.2-.1.5-.1.7-.2.1 0 .2-.3.3-.3.1 0 .3.2.4.2.3-.1.4-.5.7-.6.3-.1.7.2.9.1.2-.1.4-.3.6-.4l.6-.3c.2-.1.5.1.7 0 .2-.1.3-.5.5-.6l.6-.3c.2-.1.5 0 .7-.1.2-.1.4-.1.6-.2.2-.1.3-.3.5-.4.2-.1.5-.1.7-.2.2-.1.3-.4.5-.5l-.1-.1v.1l.3.3h-.1v-.4s.1.2.1.3c.2-.1.3-.4.5-.5l.6-.3c.2-.1.4-.2.6-.4.2-.1.4-.2.6-.4.2-.1.3-.3.5-.5s.4-.3.5-.4c.2-.2.2-.5.3-.6.2-.2.2-.5.3-.6l.5-.5c.1-.2.3-.3.5-.5.1-.2.6-.1.7-.3.1-.2 0-.6.1-.8.1-.2.4-.3.5-.5.1-.2.1-.5.2-.7.1-.2.7-.1.8-.3.1-.1.2-.3.3-.4l-.4-.3.3.1s.1 0 .1-.1l-.3-.2c.1-.2.5-.2.6-.4l.3-.6c.1-.2.1-.5.3-.6.1-.2.5-.3.6-.5.1-.2.3-.4.5-.6.1-.2-.1-.6.1-.8.1-.2.3-.4.4-.6.1-.2.1-.5.2-.7.1-.2.3-.4.4-.6.1-.2.2-.5.3-.7.1-.2.1-.5.1-.7.1-.2.5-.4.5-.6.1-.2-.1-.5-.1-.7.1-.2.4-.4.4-.6 0-.2 0-.5.1-.7 0-.2-.3-.5-.2-.7 0-.2.3-.4.3-.7 0-.2.2-.5.2-.7 0-.2.1-.5.1-.7 0-.2-.4-.5-.4-.7 0-.2.4-.5.4-.7v-.7c0-.2-.3-.4-.4-.7 0-.2 0-.5-.1-.7-.1-.3.1-.6.1-.8-.1-.3-.2-.5-.2-.8-.1-.3-.1-.5-.2-.8 0-.1-.2-.1-.3-.2 0 .1 0 .1.1.2-.1-.2-.3-.4-.3-.7-.1-.2-.2-.5-.3-.7-.1-.2.1-.6 0-.8-.1-.2-.1-.5-.2-.7-.1-.2-.6-.3-.7-.6-.1-.2-.1-.5-.2-.8-.1-.2-.4-.4-.5-.6-.1-.2 0-.6-.2-.8l-.3-.6-.3-.6c-.1-.2-.4-.3-.5-.5s-.1-.5-.2-.7c-.2-.2-.5-.3-.6-.5-.2-.2-.4-.3-.6-.5-.2-.2-.2-.6-.4-.7-.2-.2-.7 0-.9-.2.1.1.3 0 .3 0-.2-.2-.5-.1-.7-.3-.2-.1-.2-.4-.4-.5-.2-.1-.4-.3-.5-.4h.1c-.2-.2-.4-.3-.6-.5-.2-.2-.5-.3-.7-.4-.2-.2-.1-.7-.3-.8-.2-.2-.7 0-.9-.1l.1-.1c-.2-.1-.2-.5-.3-.6-.2-.1-.5-.1-.6-.2-.2-.1-.3-.4-.5-.5-.2-.1-.3-.3-.5-.5v.1c-.3-.2-.5-.6-.7-.8l-.1.1h-.1v-.2.3l.1-.2s-.1.2-.2.2c0 0 0-.1-.1-.2h.1c-.2-.1-.4-.3-.6-.4-.2-.1-.6 0-.8-.1-.2-.1-.2-.7-.4-.8-.2-.1-.5.1-.7 0l-.6-.3c-.2-.1-.4-.1-.6-.2-.2-.1-.3-.5-.5-.6-.2-.1-.6.1-.9 0l-.6-.3-.6-.3c-.3-.2-.5-.7-.8-.8-.2-.1-.4-.1-.7-.2l-.6-.3c-.2-.1-.5.2-.7.1s-.2-.4-.4-.5c-.2-.1-.5.1-.6 0-.2-.1-.2-.5-.4-.6-.2-.1-.6.2-.8.1-.2-.1-.3-.5-.5-.6-.2-.1-.4-.3-.6-.4-.2-.1-.5 0-.7-.1-.2-.1-.4-.4-.6-.4l-.6-.3c-.2-.1-.6.2-.8.1-.2-.1-.4-.2-.7-.3l-.6-.3c-.2-.1-.3-.4-.5-.5-.2-.1-.5 0-.7-.1s-.4-.3-.6-.4c-.2-.1-.5.2-.8.1l-.6-.3c-.2-.1-.4-.2-.6-.2-.2-.1-.4-.3-.6-.4-.2-.1-.4-.3-.6-.3-.2-.1-.6.2-.8.2-.2-.1-.3-.3-.5-.4-.2 0-.4-.1-.5-.2-.1 0-.3-.1-.5-.2-.1 0 0-.4 0-.4-.2-.1-.6.1-.8 0-.1-.1-.1-.2-.2-.3-.1-.1-.2 0-.3-.1-.1-.1 0-.4 0-.4l-.1.2h-.1l.1-.2c-.2-.2-.3-.5-.5-.7-.2-.2-.5-.3-.6-.5-.1-.2 0-.5 0-.8 0-.1-.4-.3-.4-.4v-.2c0-.2.5-.2.6-.4.1-.2 0-.3.1-.5s.2-.3.3-.5c.1-.1.1-.2.2-.3.1-.1.1-.4.2-.5.2-.2.4-.4.6-.5.1-.1.5.1.7 0 .2-.1.1-.5.3-.6.2-.1.4 0 .6-.1.2-.1.5-.1.8-.2.3-.1.5 0 .8-.1l-.2-.4c.2-.1.4.1.6 0 .2 0 .4-.1.6-.2v.1l.1.1v-.3.2c.2 0 .4-.4.6-.4h.6v.1h.3l.1-.1v.5c.1 0 .2-.2.3-.2.1 0 .2-.1.4-.1.3 0 .5-.1.8-.1.3 0 .5.2.8.2.1 0 .2.3.3.3.2 0 .5-.2.8-.1.2 0 .5-.1.8-.1.2.1.4.4.6.4.2.1.6-.1.8 0l-.1.5s.1-.2.2-.1l-.1.1c.2.1.5 0 .7.1.2.1.4.3.6.4l.6.3s-.1-.1-.1-.2c.2.1.3.2.5.3.2.1.4.1.6.2l-.2.2c.1.1.3.2.4.2.3.1.5.2.8.4l.6.3s0-.1-.1-.2c.3.2.4.5.6.7l.2-.2c.2.1.3.3.5.4 0 0-.2.2-.3.2.2.2.4.3.6.4.2.2.3.4.5.5.2.1.3.3.5.4.2.2.5.2.7.3l-.1.1c.2.1.3.2.5.4l.2.2c.2.2.5.1.7.2.2.1.4.3.5.4.2.1.4.3.5.4.2.1.3.5.5.7.2.1.5.2.7.4v-.3c.2.1.3.3.5.3h-.1c.1 0 .1-.1.2 0 .2.1.4.1.6.2.3.1.6.1.9.1h.2c.2 0 .4.1.6.1.1 0 0-.4.1-.4s.2.4.3.4c.3 0 .5-.2.7-.3.2-.1.3-.4.6-.5.2-.1.6 0 .8-.1.2-.1.3-.4.5-.6.2-.1.3-.2.5-.4.1-.2.4-.2.6-.4l.3-.6c.1-.2.1-.5.2-.7.2-.2.5-.3.7-.5.2-.2.2-.5.3-.7.2-.2.3-.4.5-.6.1-.2.3-.4.4-.6.1-.2.6-.1.7-.3.1-.2.1-.5.2-.7.1-.2.4-.3.5-.5.1-.2 0-.6.2-.8.1-.2.6-.2.7-.3.1-.2.4-.3.5-.5.1-.2 0-.6.2-.8.1-.2.5-.2.6-.4.1-.2.2-.4.4-.6.1-.2.1-.5.2-.7.1-.2.6-.2.7-.4.1-.2-.1-.6 0-.8.1-.2.7-.2.8-.4.1-.2-.2-.7-.1-.9.1-.2.2-.4.4-.6.1-.2.4-.3.5-.5.1-.2.3-.4.4-.6.1-.2.3-.4.4-.6l-.3-.1h.2s-.2-.1-.2 0c.1-.3.3-.5.4-.7.1-.3.3-.5.3-.8-1.7-.6-2.1-.9-2.1-1.1m-20.8 15.4"/><path class="st0" d="M1376.6 87l.1.1c0-.1-.1-.1-.1-.1m.1 0s0 .1 0 0c0 .1.1.1 0 0 0 .1 0 .1 0 0"/></svg>